<?xml version="1.0" standalone="no"?>
<!DOCTYPE svg PUBLIC "-//W3C//DTD SVG 1.1//EN" "http://www.w3.org/Graphics/SVG/1.1/DTD/svg11.dtd">
<svg xmlns="http://www.w3.org/2000/svg">
<metadata>Copyright (C) 2019 by original authors @ fontello.com</metadata>
<defs>
<font id="bigzami" horiz-adv-x="1000" >
<font-face font-family="bigzami" font-weight="400" font-stretch="normal" units-per-em="1000" ascent="850" descent="-150" />
<missing-glyph horiz-adv-x="1000" />
<glyph glyph-name="add-bold" unicode="&#xe800;" d="M796 350c0-18-5-32-19-41-13-13-27-18-41-18h-177v-177c0-18-4-32-18-41-14-14-27-18-41-18s-32 4-41 18c-13 13-18 27-18 41v177h-177c-18 0-32 5-41 18s-18 23-18 41 4 32 18 41 27 18 41 18h177v177c0 19 5 32 18 41s27 19 41 19 32-5 41-19 18-27 18-41v-177h177c19 0 32-4 41-18 14-9 19-23 19-41z" horiz-adv-x="1000" />

<glyph glyph-name="add" unicode="&#xe801;" d="M459 391v123c0 9 5 22 14 27 9 9 18 14 27 14s23-5 27-14c9-9 14-18 14-27v-123h123c9 0 22-5 27-14 9-9 14-18 14-27s-5-23-14-27c-9-9-18-14-27-14h-123v-123c0-9-5-22-14-27-9-9-18-13-27-13s-23 4-27 13c-9 9-14 18-14 27v123h-123c-9 0-22 5-27 14-9 9-13 18-13 27s4 23 13 27c9 9 18 14 27 14h123z m41-450c-73 0-141 18-204 54-64 37-114 87-150 151-37 63-55 131-55 204s18 141 55 205c36 63 86 113 150 150 63 36 131 54 204 54s141-18 205-54c63-37 113-87 150-150 36-64 54-132 54-205s-18-141-54-204c-37-64-87-110-146-146-68-41-136-59-209-59z m0 82c59 0 114 13 164 45 50 28 86 68 118 118 27 50 45 105 45 164s-13 114-45 164c-27 50-68 86-118 118-50 27-105 45-164 45s-114-13-164-45c-50-27-90-68-118-118-27-50-45-105-45-164s13-114 45-164c28-50 68-86 118-118 50-32 105-45 164-45z" horiz-adv-x="1000" />

<glyph glyph-name="alarm" unicode="&#xe802;" d="M500 91c132 0 241 109 241 241s-109 236-241 236-241-109-241-241 105-236 241-236z m0-82c-177 0-318 146-318 318s145 319 318 319 318-146 318-319-145-318-318-318z m350 509c-14-13-41-13-54 0l-105 105c-14 13-14 41 0 54s41 14 55 0l104-100c18-18 18-41 0-59z m-541 159c14-13 14-41 0-54l-104-105c-14-13-41-13-55 0-18 18-18 41 0 59l105 105c13 14 36 14 54-5z m177-218c0 14-13 27-31 27-14 0-28-13-28-27v-154l119-114c9-9 27-9 40 0 10 9 10 27 0 41l-100 100v127z" horiz-adv-x="1000" />

<glyph glyph-name="arrow-down-1" unicode="&#xe803;" d="M682 491l-177-173-182 173c-18 18-46 18-64 0l0 0c-18-14-18-41 0-59l0 0 241-232 246 232c18 18 18 45 0 59l0 0 0 0c-19 14-46 14-64 0z" horiz-adv-x="1000" />

<glyph glyph-name="arrow-down-2" unicode="&#xe804;" d="M532 600v-404l91 90c9 10 23 10 32 0l9-9c9-9 9-22 0-31l-164-169-164 164c-9 9-9 23 0 32l10 9c9 9 22 9 31 0l91-91v409c0 14 9 23 23 23h18c9 0 23-9 23-23z" horiz-adv-x="1000" />

<glyph glyph-name="arrow-down-3" unicode="&#xe805;" d="M455 177v459c0 23 18 46 45 46s46-18 46-46v-459l131 128c19 18 46 18 64 0l0 0 0 0c14-19 14-41 0-59l-241-228-241 228 0 0c-13 18-13 40 0 59l0 0c18 18 46 18 64 0l132-128z" horiz-adv-x="1000" />

<glyph glyph-name="arrow-down-4" unicode="&#xe806;" d="M641 314h86c5 0 9 0 14-5 5-4 9-9 9-13s5-10 5-14-5-9-5-14l-223-268c-9-9-18-14-31-14s-23 5-28 14l-222 268c-5 5-5 9-5 14s0 9 0 14 5 9 9 13 9 5 14 5h86c9 0 18 4 27 9s9 18 9 27v323c0 13 5 23 14 27s18 14 27 14h137c13 0 22-5 27-14 9-9 9-18 9-27v-323c0-9 5-18 9-27s23-9 32-9z" horiz-adv-x="1000" />

<glyph glyph-name="arrow-end" unicode="&#xe807;" d="M582 350l-227 241 0 0c-19 14-41 14-59 0l0 0c-19-18-19-45 0-64l168-177-168-177c-19-18-19-46 0-64l0 0 0 0c18-13 40-13 59 0l227 241z m91 255c-27 0-46-19-46-46v-423c0-27 19-45 46-45s45 18 45 45v423c0 27-18 46-45 46z" horiz-adv-x="1000" />

<glyph glyph-name="arrow-first" unicode="&#xe808;" d="M418 350l228 241 0 0c18 14 40 14 59 0l0 0c18-18 18-45 0-64l-169-177 169-177c18-18 18-46 0-64l0 0 0 0c-19-13-41-13-59 0l-228 241z m-91 255c28 0 46-19 46-46v-423c0-27-18-45-46-45s-45 18-45 45v423c0 27 18 46 45 46z" horiz-adv-x="1000" />

<glyph glyph-name="arrow-left-1" unicode="&#xe809;" d="M350 350l227-241c14-18 41-18 59 0l0 0 0 0c19 18 19 46 0 64l-168 177 168 177c19 19 19 46 0 64l0 0c-13 18-40 18-59 0l0 0-227-241z" horiz-adv-x="1000" />

<glyph glyph-name="arrow-left-2" unicode="&#xe80a;" d="M741 382h-395l86 86c14 14 14 32 0 41-14 14-32 14-41 0l-164-159 159-159c14-14 32-14 41 0 14 14 14 32 0 41l-86 86h400c18 0 32 14 32 32s-14 32-32 32z" horiz-adv-x="1000" />

<glyph glyph-name="arrow-left-3" unicode="&#xe80b;" d="M327 396h459c23 0 46-19 46-46s-18-45-46-45h-459l128-132c18-18 18-46 0-64l0 0 0 0c-19-13-41-13-59 0l-232 241 227 241 0 0c18 14 41 14 59 0l0 0c18-18 18-45 0-64l-123-131z" horiz-adv-x="1000" />

<glyph glyph-name="arrow-left-4" unicode="&#xe80c;" d="M464 209v-86c0-5 0-9-5-14-4-4-9-9-13-9s-10-4-14-4-9 4-14 4l-268 223c-9 9-14 18-14 32s5 22 14 27l268 223c5 4 9 4 14 4s9 0 14 0 9-4 13-9 5-9 5-14v-86c0-9 4-18 9-27s18-9 27-9h323c13 0 23-5 27-9 9-19 14-23 14-32v-137c0-13-5-22-14-27-9-9-18-9-27-9h-323c-9 0-18-4-27-9s-9-23-9-32z" horiz-adv-x="1000" />

<glyph glyph-name="arrow-right-1" unicode="&#xe80d;" d="M650 350l-227 241c-14 18-41 18-59 0l0 0 0 0c-18-18-18-45 0-64l168-177-168-177c-18-18-18-46 0-64l0 0c13-18 41-18 59 0l0 0 227 241z" horiz-adv-x="1000" />

<glyph glyph-name="arrow-right-2" unicode="&#xe80e;" d="M250 382h405l-91 91c-9 9-9 23 0 32l9 9c9 9 23 9 32 0l168-164-164-164c-9-9-23-9-32 0l-9 10c-9 9-9 22 0 31l91 91h-409c-14 0-23 9-23 23v14c0 13 9 27 23 27z" horiz-adv-x="1000" />

<glyph glyph-name="arrow-right-3" unicode="&#xe80f;" d="M673 396h-455c-22 0-45-19-45-46s18-45 45-45h455l-127-132c-19-18-19-46 0-64l0 0 0 0c18-13 40-13 59 0l227 241-227 241 0 0c-19 14-41 14-59 0l0 0c-19-18-19-45 0-64l127-131z" horiz-adv-x="1000" />

<glyph glyph-name="arrow-right-4" unicode="&#xe810;" d="M536 496v86c0 4 0 9 5 14 5 4 9 9 14 9s9 4 13 0c5 0 9-5 14-5l268-223c9-9 14-18 14-27s-5-23-14-27l-268-223c-5-4-9-4-14-4s-9 0-13 4c-5 0-9 5-14 9s-5 9-5 14v86c0 9-4 18-9 27s-18 10-27 10h-323c-13 0-22 4-27 13s-14 14-14 23v136c0 14 5 23 14 28 9 9 18 9 27 9h323c9 0 18 4 27 9s9 22 9 32z" horiz-adv-x="1000" />

<glyph glyph-name="arrow-up-1" unicode="&#xe811;" d="M500 505l-241-232c-18-18-18-46 0-59l0 0 0 0c18-18 46-18 64 0l177 172 177-172c19-18 46-18 64 0l0 0c18 18 18 45 0 59l0 0-241 232z" horiz-adv-x="1000" />

<glyph glyph-name="arrow-up-2" unicode="&#xe812;" d="M532 100v405l91-91c9-9 23-9 32 0l9 9c9 9 9 23 0 32l-164 168-168-164c-5-9-5-27 0-36l9-9c9-9 23-9 32 0l91 91v-405c0-14 9-23 22-23h23c9 0 23 9 23 23z" horiz-adv-x="1000" />

<glyph glyph-name="arrow-up-3" unicode="&#xe813;" d="M459 523v-459c0-23 18-46 46-46s45 18 45 46v459l132-127c18-19 45-19 64 0l0 0 0 0c13 22 13 50-5 63l-241 227-241-227 0 0c-18-18-18-45 0-59l0 0c18-18 46-18 64 0l136 123z" horiz-adv-x="1000" />

<glyph glyph-name="arrow-up-4" unicode="&#xe814;" d="M755 400c-5-4-5-9-9-9s-10-5-14-5h-86c-10 0-19-4-28-9s-9-18-9-27v-323c0-13-4-22-9-27-9-9-18-14-27-14h-137c-13 0-22 5-27 14-9 9-9 18-9 27v323c0 9-4 18-9 27s-27 9-36 9h-87c-4 0-9 0-13 5-5 5-9 9-9 14 0 4-5 9 0 13 0 5 4 9 4 14l223 268c4 9 13 14 27 14s23-5 27-14l223-268c5-5 5-9 5-14 4-4 4-13 0-18z" horiz-adv-x="1000" />

<glyph glyph-name="arrow-updown" unicode="&#xe815;" d="M441 336c0-18-14-31-32-31s-32 13-32 31v305l-86-86c-14-14-32-14-41 0-14 13-14 31 0 41l159 163 159-159c14-14 14-32 0-41-13-13-32-13-41 0l-86 82v-305z m123 28c0 18 13 32 32 32s31-14 31-32v-309l87 86c13 14 32 14 41 0 13-14 13-32 0-41l-164-159-159 159c-14 14-14 32 0 41 14 14 32 14 41 0l86-86v309h5z" horiz-adv-x="1000" />

<glyph glyph-name="arrows-shuffle" unicode="&#xe816;" d="M227 705c-13 18-41 18-59 0s-18-41 0-59l282-287-300-300c-18-18-18-41 0-59s41-18 59 0l300 300 191-195-68-69c-9-9-5-18 9-22l214-32c9 0 13 4 13 13l-32 223c0 9-13 14-22 5l-59-55-191 196 182 186 63-64c9-9 18-4 23 5l32 214c0 4-5 13-14 13l-214-32c-9 0-13-13-9-22l59-59-181-187-278 287z" horiz-adv-x="1000" />

<glyph glyph-name="attach" unicode="&#xe817;" d="M677 623c-18 0-41-9-59-32-113-136-172-205-227-277-5-9-9-14-5-18 0-5 5-10 10-19 4-4 13-9 18-9 4 0 4 0 9 5l150 177c18 18 45 23 63 5s19-50 5-69l-150-177c-50-54-118-36-155-4-18 18-31 50-36 72-4 32 5 64 27 91 55 73 114 141 228 282 36 46 81 64 127 64s86-23 118-50c59-55 96-164 23-250-41-50-73-87-105-123-50-55-100-114-186-223-46-59-105-82-164-82s-109 28-150 64-68 100-77 159c-5 64 14 132 64 191 72 109 122 173 154 209 14 18 23 27 27 37l5 9 0 0c18 18 45 22 64 4 18-18 22-45 4-68l0 0 0 0-4-9c-5-5-14-18-28-36-31-37-81-96-163-200-37-41-46-87-41-119 4-41 18-68 45-95s59-41 91-41 64 14 96 50c91 114 145 173 191 223l0 0c31 36 63 72 104 118 27 32 23 82-14 114-18 18-36 27-59 27z" horiz-adv-x="1000" />

<glyph glyph-name="bike" unicode="&#xe818;" d="M582 41c54 14 104 41 145 82 50 50 78 109 91 173-54-14-104-41-145-82-50-50-87-109-91-173z m-91-9c9 91 50 177 118 245 59 59 137 100 214 114-9 68-41 132-91 182-55 54-123 82-191 91-9-87-50-168-118-232-64-64-150-105-237-118 10-68 37-137 91-191 59-55 137-87 214-91z m-209 541c-46-46-77-105-86-168 59 9 118 41 168 86 45 45 77 105 86 168-68-9-123-36-168-86z m-68-514c-159 159-159 418 0 577s418 160 577 0 159-418 0-577-418-159-577 0z" horiz-adv-x="1000" />

<glyph glyph-name="block-arrow-down" unicode="&#xe819;" d="M468-59l-377 818h818z" horiz-adv-x="1000" />

<glyph glyph-name="block-arrow-left" unicode="&#xe81a;" d="M91 382l818 377v-818z" horiz-adv-x="1000" />

<glyph glyph-name="block-arrow-right" unicode="&#xe81b;" d="M91-59v818l818-377z" horiz-adv-x="1000" />

<glyph glyph-name="block-arrow-up" unicode="&#xe81c;" d="M532 759l377-818h-818z" horiz-adv-x="1000" />

<glyph glyph-name="browser-search" unicode="&#xe81d;" d="M250 646c-23 0-36-19-36-32 0-18 13-37 36-37 18 0 36 14 36 37-4 13-18 32-36 32m505 0c-19 0-37-14-37-37 0-18 14-36 37-36 18 0 36 13 36 36 0 18-18 37-36 37m-100 0c-19 0-37-14-37-37 0-18 18-36 37-36s36 13 36 36c0 18-18 37-36 37m186-119h-682v141c0 9 5 14 14 14h650c9 0 13-5 13-14v-141h5z m-18 228h-646c-50 0-86-37-86-87v-454c0-46 36-87 86-87h200c19 0 32 19 32 37s-13 36-36 36h-196c-9 0-13 5-13 14v245h677v-41c0-18 14-36 36-36 19 0 37 14 37 36v250c-5 50-41 87-91 87l0 0z m-150-700c-77 0-141 63-141 141s64 140 141 140 141-63 141-140c0-73-64-141-141-141l0 0z m154 9c32 36 50 82 50 136 0 114-95 209-209 209s-209-95-209-209 96-209 209-209c37 0 73 9 105 32l68-69c5-4 14-9 23-9s18 5 22 9c14 14 14 37 0 51l-59 59z" horiz-adv-x="1000" />

<glyph glyph-name="browser-flowcahrt" unicode="&#xe81e;" d="M327 659c19 0 37-13 37-36 0-18-14-37-37-37-18 0-36 19-36 37 0 18 14 36 36 36-4 0-4 0 0 0z m346 0c18 0 32-18 32-41 0-18-14-27-32-32-18 0-32 19-32 41 5 19 18 32 32 32z m-96 0c19 0 37-13 37-36 0-18-14-37-37-37-18 0-36 14-36 37 0 23 14 36 36 36l0 0z m-118-650h77v55h-77v-55z m-295 0h77v55h-77l0-55z m95 482h477v-114c0-9-4-13-13-13h-446c-9 0-13 9-13 13v114z m482 182v-114h-482v114c0 9 5 13 14 13l0 0h450c9 0 18-4 18-13z m18-664h77v55h-77l0-55z m150 68c0 32-27 59-59 59h-14v41c0 32-27 59-63 55h-237v54h191c46 0 87 37 87 87 0 0 0 0 0 0v300c0 13-5 23-9 36-14 32-41 50-73 50h-464c-32 0-59-23-68-50-9-13-9-23-9-36v-300c0-46 36-87 86-87h191v-54h-245c-14 0-32-9-41-18-9-9-18-28-18-41v-41h-14c-32 4-59-23-59-55v-9l0 0v-77c0-27 23-50 50-50 0 0 0 0 0 0h109c32 0 59 27 59 59v77c0 32-27 59-59 59h-14v32h228v-27h-14c-32 0-59-27-59-59v-73c0-23 14-45 41-55 4-9 9-13 18-13h100c9 0 14 0 18 4 23 9 41 32 41 55v77c0 32-27 59-59 59h-14v32h228v-27h-14c-32 0-59-27-59-59v-73c0-32 27-59 59-59 0 0 0 0 0 0h109c27 0 50 23 50 50v0 9l0 0v68z" horiz-adv-x="1000" />

<glyph glyph-name="calendar" unicode="&#xe81f;" d="M182 691c0 27 18 45 45 45s46-18 46-45v-45h454v45c0 27 19 45 46 45s45-18 45-45v-45c50 0 91-41 91-91v-500c0-50-41-91-91-91h-636c-50 0-91 41-91 91v500c0 50 41 91 91 91v45z m0-273v-318c0-27 18-45 45-45h546c27 0 45 18 45 45v318c0 28-18 46-45 46h-546c-27 0-45-18-45-46z m500-182c27 0 45-18 45-45s-18-45-45-45-46 18-46 45 19 45 46 45z" horiz-adv-x="1000" />

<glyph glyph-name="call" unicode="&#xe820;" d="M146 609c-14 27 0 55 27 64l123 32c9 4 22 0 27-9l86-160c5-13 0-22-9-31l-73-55c82-118 164-200 273-273l55 73c4 9 18 14 27 5l168-91c9-5 14-18 9-28l-32-113c-9-28-41-41-63-28-73 37-132 64-209 123-82 59-214 187-287 287-50 63-95 150-122 204z" horiz-adv-x="1000" />

<glyph glyph-name="camera" unicode="&#xe821;" d="M800-59h-595c-82 0-150 68-150 150v409c0 82 68 150 150 150h86l27 86c5 14 18 23 32 23h296c18 0 31-9 36-27l27-86h87c81 0 150-69 150-150v-410c0-77-64-145-146-145z m-595 632c-41 0-73-32-73-73v-409c0-41 32-73 73-73h595c41 0 73 32 73 73v409c0 41-32 73-73 73h-114c-18 0-31 9-36 27l-27 86h-246l-27-86c-4-18-18-27-36-27h-109z m295-482c-104 0-186 82-186 186s82 187 186 187 186-82 186-187-81-186-186-186z m0 295c-64 0-114-50-114-113s50-114 114-114 114 50 114 114-50 113-114 113z m36 150h-72c-23 0-37 19-37 37 0 23 19 36 37 36h72c23 0 37-18 37-36 4-18-14-37-37-37z" horiz-adv-x="1000" />

<glyph glyph-name="card" unicode="&#xe822;" d="M182 668a91 91 0 0 1-91-91v-454a91 91 0 0 1 91-91h636a91 91 0 0 1 91 91v454a91 91 0 0 1-91 91z m23-91a23 23 0 0 1-23-22v-69h636v69a23 23 0 0 1-22 22z m-23-431v204h636v-204a23 23 0 0 0-22-23h-591a23 23 0 0 0-23 23z" horiz-adv-x="1000" />

<glyph glyph-name="check" unicode="&#xe823;" d="M882 577c18 19 18 46 0 64s-46 18-64 0l-482-482-150 150c-18 18-45 18-63 0s-18-45 0-63l182-182c0 0 0 0 0-5 9-9 22-13 31-13h5c9 0 18 4 27 13 0 0 0 0 0 5l514 513z" horiz-adv-x="1000" />

<glyph glyph-name="circle-check" unicode="&#xe824;" d="M500-59c-73 0-141 18-204 54-64 37-114 87-150 151-37 63-55 131-55 204s18 141 55 205c36 63 86 113 150 150 63 36 131 54 204 54s141-18 205-54c63-37 113-87 150-150 36-64 54-132 54-205s-18-141-54-204c-37-64-87-110-146-146-68-41-136-59-209-59z m0 82c59 0 114 13 164 45 50 28 86 68 118 118 32 50 45 105 45 164s-13 114-45 164c-27 50-68 86-118 118-50 32-105 45-164 45s-114-13-164-45c-50-27-90-68-118-118-32-50-45-105-45-164s13-114 45-164c28-50 68-86 118-118 50-32 105-45 164-45z m-91 177l-123 123c-4 9-9 18-9 27 0 9 5 18 14 27 9 9 14 9 27 14 9 0 18 0 28-9l95-96 195 196c10 4 19 9 28 9 9-5 18-5 27-14 9-9 9-13 14-27s0-18-9-27l-223-223c-9-9-18-9-27-9-19-5-28 0-37 9z" horiz-adv-x="1000" />

<glyph glyph-name="clipboard" unicode="&#xe825;" d="M636 668c0-13-4-32-9-45h146c50 0 91-41 91-91v-546c0-50-41-91-91-91h-546c-50 0-91 41-91 91v546c0 50 41 91 91 91h146c-27 68 9 150 82 173s150-10 177-82c0-14 4-32 4-46z m-409-159c0 14 9 23 23 23h68v-68c0-14 9-23 23-23h318c14 0 23 9 23 23v68h68c14 0 23-9 23-23v-500c0-14-9-23-23-23h-500c-14 0-23 9-23 23v500z m273 114c-27 0-45 18-45 45s18 46 45 46 46-18 46-46-19-45-46-45z" horiz-adv-x="1000" />

<glyph glyph-name="close-circle" unicode="&#xe826;" d="M500 409l86 87c10 9 19 13 28 13 9 0 22-4 27-13 5-10 14-19 14-28s-5-22-14-27l-82-91 87-86c9-9 13-18 13-28 0-9-4-22-13-27-10-9-19-13-28-13s-22 4-27 13l-91 82-86-86c-9-9-18-14-28-14s-22 9-31 14c-9 9-14 18-14 27 0 9 5 23 14 27l86 91-86 86c-9 10-9 19-9 28s4 22 9 32c9 4 18 9 31 9 10 0 23-5 28-14l86-82z m-291-350c-50 50-86 114-104 187-19 68-19 140 0 209 18 72 54 131 104 186s114 86 187 105c68 18 140 18 209 0 72-19 131-55 186-105 50-50 86-114 105-186 18-69 18-141 0-209-19-73-55-132-105-187-50-50-114-86-186-105-69-18-141-18-209 0-73 19-132 55-187 105z m59 59c41-41 91-72 150-86 55-14 109-14 168 0 55 14 105 45 150 86 41 41 73 91 87 150 13 55 13 109 0 168-14 55-46 105-87 150-40 41-90 73-150 87-54 13-109 13-168 0-59-23-109-50-150-91s-68-91-86-150c-14-55-14-109 0-168 18-55 45-105 86-146z" horiz-adv-x="1000" />

<glyph glyph-name="close" unicode="&#xe827;" d="M791 573c18 18 18 45 0 63s-45 19-64 0l-227-222-223 222c-18 19-45 19-63 0s-18-45 0-63l222-223-222-223c-18-18-18-45 0-63s45-18 63 0l223 222 223-222c18-18 45-18 63 0s19 45 0 63l-227 223 232 223z" horiz-adv-x="1000" />

<glyph glyph-name="code" unicode="&#xe828;" d="M273 573l-182-223 182-218c13-18 36-18 54-5l0 0c19 14 19 37 5 55l-141 168 141 173c14 13 14 41-5 54-18 14-41 9-54-4l0 0z m395-50l141-173-141-173c-13-18-9-41 5-54 18-14 41-9 54 4l0 0 182 219-182 218c-13 18-36 18-54 4l0 0c-18-4-18-32-5-45z" horiz-adv-x="1000" />

<glyph glyph-name="colse-thick" unicode="&#xe829;" d="M882 82c14-18 23-36 23-59 0-23-9-41-23-59s-32-23-55-23-41 9-59 23l-245 245c-5 5-14 9-23 9s-18-4-23-9l-241-241c-18-18-36-27-59-27s-41 9-59 23c-18 13-27 36-27 59 0 23 9 41 23 59l245 245c5 5 9 14 9 23 0 9-4 18-9 23l-241 241c-18 18-22 36-27 59 0 23 9 41 23 59s36 27 59 27 41-9 59-23l245-245c5-5 14-9 23-9s18 4 23 9l245 245c18 14 37 23 59 23s41-9 59-23c14-18 23-36 23-59s-9-41-27-59l-246-245c-4-5-9-14-9-23 0-9 5-18 9-23l246-245z" horiz-adv-x="1000" />

<glyph glyph-name="comment" unicode="&#xe82a;" d="M91 609c0 50 41 91 91 91h636c50 0 91-41 91-91v-409c0-50-41-91-91-91h-354l-100-91c-28-27-73-23-96 5-9 13-18 27-18 45v41h-68c-50 0-91 41-91 91v409z m114 0h591c13 0 22-9 22-23v-363c0-14-9-23-22-23h-591c-14 0-23 9-23 23v363c0 14 9 23 23 23z m68-136c0-27 18-46 45-46h364c27 0 45 19 45 46s-18 45-45 45h-364c-27 0-45-22-45-45z m45-91c-27 0-45-18-45-46s18-45 45-45h232c27 0 46 18 46 45s-19 46-46 46h-232z" horiz-adv-x="1000" />

<glyph glyph-name="contents-list-box" unicode="&#xe82b;" d="M364 350a35 35 0 0 0-34-34h-34a34 34 0 0 0 0 68h34a35 35 0 0 0 34-34z m-34 205h-34a34 34 0 0 1 0-69h34a34 34 0 0 1 0 69z m0-341h-34a34 34 0 0 1 0-68h34a34 34 0 0 1 0 68z m375 341h-239a34 34 0 0 1 0-69h239a34 34 0 0 1 0 69z m204 68v-546a136 136 0 0 0-136-136h-546a136 136 0 0 0-136 136v546a136 136 0 0 0 136 136h546a136 136 0 0 0 136-136z m-68 0a68 68 0 0 1-68 68h-546a68 68 0 0 1-68-68v-546a68 68 0 0 1 68-68h546a68 68 0 0 1 68 68z m-136-239h-239a34 34 0 0 1 0-68h239a34 34 0 0 1 0 68z m0-170h-239a34 34 0 0 1 0-68h239a34 34 0 0 1 0 68z" horiz-adv-x="1000" />

<glyph glyph-name="cut" unicode="&#xe82c;" d="M509 386v373l-32-18c-54-32-86-91-86-155v-190c-18 4-41 9-64 18-27 9-54 18-86 18h-36c-64 0-114-50-114-114 0-63 50-113 114-113h36c50 0 91 27 105 72h50v-81c-46-14-78-55-78-105v-36c0-64 50-114 114-114s114 50 114 114v27c0 32-10 64-19 91-9 32-18 59-18 91v9h227c60 0 119 32 155 86l18 27h-400z m-268-109h-36c-19 0-37 14-37 37 0 18 14 36 37 36h36c18 0 36-18 36-36 0-18-13-37-36-37z m227-222c0-23-18-37-36-37s-36 14-36 37v36c0 23 18 36 36 36s36-18 36-36v-36z" horiz-adv-x="1000" />

<glyph glyph-name="dashboard-list" unicode="&#xe82d;" d="M364 759h-171a102 102 0 0 1-102-102v-171a102 102 0 0 1 102-102h171a102 102 0 0 1 102 102v171a102 102 0 0 1-102 102z m34-273a35 35 0 0 0-34-34h-171a35 35 0 0 0-34 34v171a35 35 0 0 0 34 34h171a35 35 0 0 0 34-34z m409 273h-171a102 102 0 0 1-102-102v-171a102 102 0 0 1 102-102h171a102 102 0 0 1 102 102v171a102 102 0 0 1-102 102z m34-273a35 35 0 0 0-34-34h-171a35 35 0 0 0-34 34v171a35 35 0 0 0 34 34h171a35 35 0 0 0 34-34z m-34-170h-171a102 102 0 0 1-102-102v-171a102 102 0 0 1 102-102h171a102 102 0 0 1 102 102v171a102 102 0 0 1-102 102z m34-273a35 35 0 0 0-34-34h-171a35 35 0 0 0-34 34v171a35 35 0 0 0 34 34h171a35 35 0 0 0 34-34z m-477 273h-171a102 102 0 0 1-102-102v-171a102 102 0 0 1 102-102h171a102 102 0 0 1 102 102v171a102 102 0 0 1-102 102z m34-273a35 35 0 0 0-34-34h-171a35 35 0 0 0-34 34v171a35 35 0 0 0 34 34h171a35 35 0 0 0 34-34z" horiz-adv-x="1000" />

<glyph glyph-name="delete_trash" unicode="&#xe82e;" d="M875 657h-341v68a34 34 0 0 1-68 0v-68h-341a34 34 0 0 1 0-68h34v-512a136 136 0 0 1 137-136h409a136 136 0 0 1 136 136v512h34a34 34 0 0 1 0 68z m-102-580a68 68 0 0 0-68-68h-409a68 68 0 0 0-69 68v512h546z m-273 444a35 35 0 0 0 34-35v-375a34 34 0 0 0-68 0v375a35 35 0 0 0 34 35z m102-410v375a34 34 0 0 0 69 0v-375a34 34 0 0 0-69 0z m-204 375v-375a34 34 0 0 0-68 0v375a34 34 0 0 0 68 0z" horiz-adv-x="1000" />

<glyph glyph-name="document-edit" unicode="&#xe82f;" d="M705 555c-19 0-32 13-37 36v50l87-86h-50z m168-32l0 0v-477c0-55-46-105-100-105 0 0 0 0 0 0h-309v68h309c18 0 36 14 36 37v440h-104c-55 0-100 46-100 100v105h-309c-19 0-32-14-37-36v-100h-63v104c0 55 45 100 100 100h340c10 0 19-4 23-9l205-204c4-5 4-10 9-10 0-4 0-9 0-13z m-541-105c54 0 100-41 100-95 0 0 0 0 0 0v-73h-68v68c0 14-9 32-28 32 0 0 0 0 0 0h-95l45-45-50-46-100 100c-13 14-13 37 0 50l100 100 50-50-45-45 91 4z m-14-213l100-100c14-14 14-37 0-50l-100-105-45 50 45 46h-91c-54 0-100 40-104 95v73h68v-68c0-19 9-32 27-37h96l-46 46 50 50z" horiz-adv-x="1000" />

<glyph glyph-name="document-list" unicode="&#xe830;" d="M741 9c18 0 36 14 36 37v440h-100c-63 0-109 46-109 100v105h-309c-18 0-36-14-36-36v-614c0-18 13-36 36-36l482 4 0 0z m-18 546l-87 86v-55c0-18 14-36 37-36h50v5z m118-32l0 0v-477c0-55-45-101-100-101h-482c-54-4-100 41-100 96v618c0 55 46 100 100 100h341c9 0 18-4 23-9l204-204c5-5 5-10 9-10 5-4 5-9 5-13z m-509-241v68h341v-68h-341z m0-168v68h341v-68h-341z" horiz-adv-x="1000" />

<glyph glyph-name="document-open" unicode="&#xe831;" d="M841 486h-100c-59 0-105 46-105 100v105h-309c-18 0-36-14-36-36v-237h-64v241c0 55 46 100 100 100h341c5 0 9 0 14 0 4 0 9-4 14-9l204-204c5-5 5-10 9-14 0-5 0-9 0-14v-477c0-55-45-100-100-100h-445v68h445c18 0 37 14 37 37v440z m-50 69l-86 86v-55c0-18 13-36 36-36h50z m-477-378h-223v69h223l-46 45 50 50 100-100c14-14 14-36 0-50l-100-105-45 50 41 41z" horiz-adv-x="1000" />

<glyph glyph-name="document-arrow-right-1" unicode="&#xe832;" d="M555 250h-223v68h223l-46 46 50 50 100-109c14-14 14-37 0-50l-100-100-50 50 46 45z m59 509c4 0 9-4 13-9l205-204c4-5 4-10 9-14 0-5 0-9 0-14v-477c0-55-45-100-100-100h-482c-54 0-100 45-100 100v618c0 55 46 100 100 100h341c5 0 9 0 14 0l0 0z m-46-68h-309c-18 0-36-14-36-36v-614c0-18 13-36 36-36h477c19 0 37 13 37 36v445h-100c-59 0-105 46-105 100v105z m68-50v-55c0-18 14-36 37-36h54l-91 91z" horiz-adv-x="1000" />

<glyph glyph-name="dots" unicode="&#xe833;" d="M227 441c-50 0-91-41-91-91s41-91 91-91 91 41 91 91-41 91-91 91l0 0z m546 0c-50 0-91-41-91-91s41-91 91-91 91 41 91 91-41 91-91 91l0 0z m-273 0c-50 0-91-41-91-91s41-91 91-91 91 41 91 91-41 91-91 91l0 0z" horiz-adv-x="1000" />

<glyph glyph-name="double-arrow-left" unicode="&#xe834;" d="M464 350l227 241 0 0c18 14 41 14 59 0l0 0c18-18 18-45 0-64l-168-177 168-177c18-18 18-46 0-64l0 0 0 0c-18-13-41-13-59 0l-227 241z m-228 0l228 241 0 0c18 14 41 14 59 0l0 0c18-18 18-45 0-64l-168-177 168-177c18-18 18-46 0-64l0 0 0 0c-18-13-41-13-59 0l-228 241z" horiz-adv-x="1000" />

<glyph glyph-name="double-arrow-right" unicode="&#xe835;" d="M536 350l-227 241 0 0c-18 14-41 14-59 0l0 0c-18-18-18-45 0-64l168-177-168-177c-18-18-18-46 0-64l0 0 0 0c18-13 41-13 59 0l227 241z m228 0l-228 241 0 0c-18 14-40 14-59 0l0 0c-18-18-18-45 0-64l169-177-169-177c-18-18-18-46 0-64l0 0 0 0c19-13 41-13 59 0l228 241z" horiz-adv-x="1000" />

<glyph glyph-name="double-check" unicode="&#xe836;" d="M850 568c-14 0-23-4-32-9l-295-295-100 100c-23 18-55 18-77 0-23-18-23-55-5-78l141-140c23-23 54-23 77 0l337 336c13 18 13 41 4 59s-32 27-50 27l0 0z m-659-204c-23 22-55 22-77 0s-23-55 0-78l145-145c14-9 37-14 50-5 18 5 32 23 37 41 4 14 0 32-10 46l-145 141z m295 18c23-23 55-23 78 0l100 100c9 14 13 36 9 50s-23 32-41 36c-14 5-32 0-46-9l-100-100c-9-9-18-23-18-41 0-9 9-22 18-36l0 0z" horiz-adv-x="1000" />

<glyph glyph-name="download" unicode="&#xe837;" d="M505 714c27 0 45-18 45-46v-377l118 114c18 18 50 18 73 0 18-19 18-50 0-69l-236-213-237 213c-18 19-18 50 0 69 18 18 50 18 73 0l118-114v377c0 28 14 46 46 46z m-209-637h400c27 0 50-18 50-45s-23-46-50-46h-400c-28 0-50 19-50 46s22 45 50 45z" horiz-adv-x="1000" />

<glyph glyph-name="drop-down-1" unicode="&#xe838;" d="M641 464l-141-141-141 141-41-46 182-182 182 182-41 46z" horiz-adv-x="1000" />

<glyph glyph-name="equal" unicode="&#xe839;" d="M796 486c0-18-5-31-19-40-13-14-27-19-41-19h-472c-18 0-32 5-41 19-14 9-18 22-18 40s4 32 18 41 23 19 41 19h472c19 0 32-5 41-19 14-9 19-22 19-41z m0-272c0-18-5-32-19-41-13-14-27-18-41-18h-472c-18 0-32 4-41 18-14 13-18 27-18 41s4 32 18 41c9 13 23 18 41 18h472c19 0 32-5 41-18 14-9 19-23 19-41z" horiz-adv-x="1000" />

<glyph glyph-name="etc-1-1" unicode="&#xe83a;" d="M614 759c4 0 9-4 13-9l205-204c4-5 4-10 9-14 0-5 0-9 0-14v-477c0-55-45-100-100-100h-482c-54 0-100 45-100 100v618c0 55 46 100 100 100h341c5 0 9 0 14 0l0 0z m-46-68h-309c-18 0-36-14-36-36v-614c0-18 13-36 36-36h477c19 0 37 13 37 36v445h-100c-59 0-105 46-105 100v105z m68-50v-55c0-18 14-36 37-36h54l-91 91z m-240-291c-55 0-100 46-100 100s45 100 100 100 100-45 100-100c0-27-10-54-32-73s-41-27-68-27z m0 136c-19 0-32-13-32-36s13-36 36-36 32 18 32 36-14 36-36 36z m0-409c-55 0-100 46-100 100s45 100 100 100 100-45 100-100-41-100-100-100z m0 137c-19 0-37-14-37-37s14-36 37-36 36 14 36 36-14 37-36 37z m136 204h173v-68h-173v68z m0-272h173v-69h-173v69z m0 136h173v-68h-173v68z" horiz-adv-x="1000" />

<glyph glyph-name="etc-1-2" unicode="&#xe83b;" d="M873 32v-68h-132c-32 0-59 27-59 59v168l-50-50-50 50 104 105c5 4 14 9 23 9s18-5 23-9l104-105-50-50-50 50v-159h137z m-409 477c-164 0-268 55-268 91s104 91 268 91 268-55 268-91-105-91-268-91l0 0z m118-491c-41-9-77-13-118-13-164 0-268 54-268 91v150c63-37 159-60 268-60h32v73h-32c-164 0-268 55-268 91v150c63-36 159-59 268-59s204 23 268 59v-159h68v259c0 91-145 159-332 159s-341-68-341-159v-500c0-91 146-159 332-159h5c41 0 86 4 127 13h9l-9 69-9-5z" horiz-adv-x="1000" />

<glyph glyph-name="etc-1-3" unicode="&#xe83c;" d="M500 146h136v68h-136v-68z m-136 0h68v68h-68v-68z m0 136h272v68h-272v-68z m309 136h-346c-18 0-36-13-36-36v-273c0-18 14-36 36-36h341c18 0 37 13 37 36v273c0 23-14 36-32 36l0 0z m63-409h-472c-18 0-37 14-37 37v613c0 18 14 37 37 37h309v-100c0-55 45-100 100-100h100v-446c0-27-14-41-37-41l0 0z m-13 546h-55c-18 0-36 13-36 36v50l91-86z m118-32c0 4 0 9 0 9 0 4-5 9-9 9l-205 205c-9 9-18 13-27 13h-336c-59 0-105-45-105-100v-613c0-55 46-101 100-101h477c55 0 100 46 100 101l5 477 0 0 0 0z" horiz-adv-x="1000" />

<glyph glyph-name="etc-1" unicode="&#xe83d;" d="M423 305c13-14 13-37 0-50l-105-100-45 50 45 45h-91c-18 0-31-9-36-27v-5-236h-64v232c0 54 41 100 96 100h4 87l-46 45 50 50 105-104z m282 250c-19 0-37 13-37 36v50l46-45 45-46-54 5 0 0z m168-32c0 4 0 9 0 9 0 4-5 9-9 9l-205 205c-4 9-13 13-23 13h-340c-55 0-100-45-100-104v-205h68v205c0 18 13 36 36 36h305v-100c0-55 45-105 100-105h100v-440c0-19-14-37-37-37h-336v-68h341c54 0 100 45 100 100v482l0 0 0 0z" horiz-adv-x="1000" />

<glyph glyph-name="etc-2-1" unicode="&#xe83e;" d="M455 41c0-23-19-41-41-41h-18c-23 0-41 18-41 41s18 41 41 41h22c18-5 37-14 37-41l0 0z m-128 0c0-23-18-41-41-41h-22c-23 0-41 18-41 41v23c0 22 18 41 41 41 18 0 32-9 36-28 14 0 27-22 27-36l0 0z m-104 145c0 23 18 41 41 41s41-18 41-41v-22c0-23-19-41-41-41s-41 18-41 41v22z m0 100v23c0 23 18 41 41 41s41-18 41-41v-23c0-22-19-40-41-40-23 4-41 18-41 40l0 0z m386 169v231h232l0 0v-231h-232z m200-305c18 0 37-14 37-32 0-18-14-36-37-36h-45v-46c0-18-14-36-37-36-18 0-36 14-36 36v46h-45c-19 0-37 14-37 36 0 18 14 32 37 32h45v46c0 18 14 36 36 36 19 0 37-14 37-36v-46c0 5 45 5 45 0z m-418 305h-232v231h232l0 0v-231z m450-69c36 0 68 32 68 69v231c0 37-32 69-68 69h-232c-36 0-68-32-68-69v-81h-77v81c-5 37-32 69-73 69h-232c-36 0-68-32-68-69v-231c0-37 32-69 68-69h232c36 0 68 32 68 69v81h77v-81c0-37 32-69 69-69h81v-86h-72c-37 0-68-32-68-68v-223c0-36 31-68 68-68h222c37 0 69 32 69 68v223c0 41-32 68-69 68h-81v86h86z" horiz-adv-x="1000" />

<glyph glyph-name="etc-2-2" unicode="&#xe83f;" d="M682 636h173v73h-173v-73z m-464-104h173v73h-173v-73z m464 0h173v73h-173v-73z m0-100h173v68h-173v-68z m-232 0h173v68h-173v-68z m-232 0h173v68h-173v-68z m464-136v-164c0-18 18-36 36-36h105c18 0 36 18 36 36v164h-73v-78h-31v78h-73z m-232 0v-114c0-18 18-36 36-36h105c18 0 36 18 36 36v114h-72v-28h-32v28h-73z m-232 0v-191c0-19 18-37 37-37h104c18 0 37 18 37 37v191h-73v-105h-32v105h-73z m691 31h-745v-313h745v-73h-782c-18 0-36 18-36 36v782h73v-359h745v-73z" horiz-adv-x="1000" />

<glyph glyph-name="etc-2-3" unicode="&#xe840;" d="M682 232c-18 0-36 18-36 36 0 18 18 37 36 37 18 0 36-19 36-37 0-18-13-36-36-36l0 0z m-309 114h118v27h-118v-27z m0-219h118v28h-118v-28z m-64 59v-13h-27v154h27v-13c0-18 14-32 32-32h59v-64h-59c-18 0-32-13-32-32l0 0z m405 178v141c0 18-14 31-32 31h-250c-18 0-32-13-32-31v-64h-59c-18 0-32-18-32-36v-9h-59c-18 0-32-14-32-32v-223c0-18 14-32 32-32h59v-13c0-19 14-32 32-32h182c18 0 32 13 32 32v90c0 19-14 32-32 32h-59v64h59c18 0 32 14 32 32v91c0 18-14 31-32 31h-59v37h186v-109c-41-14-68-55-68-96 0-54 45-100 100-100 54 0 100 46 100 100 4 46-27 82-68 96l0 0z m-487 227c-22 0-36 14-36 32 0 18 14 36 36 36 19 0 37-13 37-36-5-18-18-32-37-32l0 0z m582 32c0-18-13-37-36-37-18 0-37 14-37 37 0 18 14 36 37 36 23 0 36-13 36-36l0 0z m-168 0c0 18 14 36 36 36 19 0 37-13 37-36 0-18-14-37-37-37-22 5-36 19-36 37l0 0z m200-573c0-23-18-41-41-41h-600c-23 0-41 18-41 41v600c0 23 18 41 41 41h600c23 0 41-18 41-41v-600z m-41 709h-600c-59 0-109-50-109-109v-595c0-64 50-114 109-114h600c59 0 109 50 109 109v600c0 59-50 109-109 109l0 0z" horiz-adv-x="1000" />

<glyph glyph-name="etc-2-4" unicode="&#xe841;" d="M664 173l195 195 50-50-223-222c-9-10-18-10-27-10-9 0-18 5-27 10l-109 109 50 50 91-82z m-505 336v182h677l0 0v-182h-677z m237-245h-237v177h237v-177z m-237-255v182h237v-182h-237z m682 750h-682c-36 0-68-32-68-68v-182-68-177-68-182c0-41 32-73 68-73h677c37 0 69 32 69 68v141h-69v-141h-372v432h372 73v68 182c0 36-32 68-68 68l0 0z" horiz-adv-x="1000" />

<glyph glyph-name="etc-2-5" unicode="&#xe842;" d="M723 50h68v68h-68v-68z m-109 0h68v68h-68v-68z m109 96h68v68h-68v-68z m-109 0h68v68h-68v-68z m-46-137h273v246h-273v-246z m0 314h273v68h-273v-68z m341 68v-382c0-36-32-68-68-68h-273c-36 0-68 32-68 68v382c0 36 32 68 68 68h273c36 0 68-32 68-68l0 0z m-713-382h272v-68h-272c-60 0-105 45-105 100v614c0 59 41 104 95 104 0 0 5 0 5 0h241c54 0 100-41 100-95 0 0 0-5 0-5v-68h273c59-5 104-50 104-105h-68c0 19-14 37-36 37h-305-273v63h241v69c0 18-9 31-27 36 0 0-5 0-5 0h-240c-19 0-32-9-37-27 0 0 0-5 0-5v-613c0-23 14-37 37-37l0 0z" horiz-adv-x="1000" />

<glyph glyph-name="etc-2-6" unicode="&#xe843;" d="M159 691v-114h682v114h-682z m273-355c9-4 14-18 14-27v-277l113 59v218c0 9 5 23 14 27l177 169h-495l177-169z m-23-395c-9 0-18 4-23 9-4 9-9 18-9 36v305l-250 227c-22 18-36 50-36 68v91c0 46 36 82 82 82h659c45 0 82-36 82-82v-91c0-22-14-50-32-63l-250-227v-205c0-23-14-45-36-59l-155-82c-14-5-23-9-32-9l0 0z" horiz-adv-x="1000" />

<glyph glyph-name="etc-2-7" unicode="&#xe844;" d="M746 314h68v68h-68v-68z m-560 0h69v68h-69v-68z m278-287h68v69h-68v-69z m0 569h68v68h-68v-68z m254-587h123v123h-123v-123z m141 191h-45v68h-68v-68h-46c-27 0-50-23-50-50v-54h-68v-69h68v-36c0-27 23-50 50-50h159c27 0 50 23 50 50v159c0 27-23 50-50 50l0 0z m-700-191h123v123h-123v-123z m191 141c0 27-23 50-50 50h-45v68h-69v-68h-45c-27 0-50-23-50-50v-159c0-27 23-50 50-50h159c27 0 50 23 50 50v36h68v69h-68v54z m368 418h123v123h-123v-123z m141 191h-159c-27 0-50-23-50-50v-45h-68v-68h68v-46c0-27 23-50 50-50h46v-68h68v68h45c27 0 50 23 50 50v159c0 27-23 50-50 50l0 0z m-700-191h123v123h-123v-123z m191 141c0 27-23 50-50 50h-159c-27 0-50-23-50-50v-159c0-27 23-50 50-50h45v-68h69v68h45c27 0 50 23 50 50v46h68v68h-68v45z" horiz-adv-x="1000" />

<glyph glyph-name="etc-2-8" unicode="&#xe845;" d="M582 346c4-5 14-10 23-10s18 5 22 10l91 90h55v69h-68c-9 0-19-5-23-9l-77-78-182 182c-14 14-37 14-46 0l-91-91h-59v-68h69c9 0 18 5 22 9l78 77 186-181z m-59-278h250v68h-250v-68z m-68-59h386v187h-386v-187z m454 187v-187c0-36-32-68-68-68h-386c-37 0-69 32-69 68v187c0 36 32 68 69 68h386c36 0 68-28 68-68l0 0z m0 463v-336h-68v336c0 18-14 37-36 37h-614c-18 0-32-14-32-37v-613c0-19 14-37 32-37h136v-68h-136c-55 0-100 45-100 105v613c0 55 45 100 100 100h614c59 0 104-45 104-100l0 0z" horiz-adv-x="1000" />

<glyph glyph-name="etc-2-9" unicode="&#xe846;" d="M582 373h214v-327h-323v218h109c0 0 0 109 0 109z m-96 77c0-4-4-9-9-9h-68v-64c0-4-4-9-9-9h-54c-5 0-10 5-10 9v64h-68c-4 0-9 5-9 9v55c0 4 5 9 9 9h64v68c0 4 4 9 9 9h55c4 0 9-5 9-9v-64h63c5 0 9-4 9-9v-59h9z m-277-136h332v327h-332v-327z m637-305c0-4-5-4-5-4h-409c-5 0-5 4-5 4v187 68h-68-191c-4 0-4 4-4 4v414c0 4 4 4 4 4h405c4 0 4-4 4-4v-186-69h69 186c4 0 4-4 4-4v-414h10z m-5 482h-186v191c0 41-32 73-73 73h-414c-41 0-72-32-72-73v-405c0-41 31-72 72-72h187v-187c0-41 31-73 72-73h405c41 0 73 32 73 73v400c9 41-23 73-64 73l0 0z" horiz-adv-x="1000" />

<glyph glyph-name="etc-2-10" unicode="&#xe847;" d="M900 46l-104-105-50 50 45 45h-91c-54 0-104 41-104 100v5 68h68v-68c0-18 9-32 27-36h5 90l-45 45 50 50 105-104c18-14 18-37 4-50l0 0z m-295 559c-14 13-14 36 0 50l104 104 50-50-45-45h91c54 4 100-41 104-96v-4-68h-68v63c0 18-9 32-27 37h-5-91l46-46-50-50-109 105z m-396 31c0 23 18 41 41 41s41-18 41-41-18-40-41-40-41 18-41 40l0 0z m200-127h59v82h-59v-82z m0-173h59v105h-59v-105z m0-177h59v105h-59v-105z m0-150h59v77h-59v-77z m-250 577h177v105h-177v-105z m0-200h177v128h-177v-128z m0-177h177v105h-177v-105z m0-200h177v127h-177v-127z m346 650h-96v64c0 23-13 36-32 36h-250c-22 0-36-13-36-36v-750c0-19 14-32 36-32h241 9 128c18 0 36 13 36 36v646c-5 23-18 36-36 36l0 0z" horiz-adv-x="1000" />

<glyph glyph-name="etc-2" unicode="&#xe848;" d="M159 109h677v527h-677v-527z m750 537v-550c0-32-27-60-59-60h-314v-27h73v-9c0-32-27-59-59-59h-100c-32 0-59 27-59 59v9h73v27h-314c-32 0-59 28-59 60v550c0 31 27 59 59 59h241v13c0 23 14 37 36 37h150c19 0 37-14 37-37v-13h241c27 0 54-28 54-59l0 0z m-691-332l100 100c0 9-4 22-4 32 0 45 36 86 86 86 46 0 86-36 86-86 0-10 0-19-4-32l91-91c9 4 18 4 32 4 9 0 18 0 31-4l100 100 50-50-100-100c5-9 5-18 5-32 0-45-36-86-86-86s-87 36-87 86c0 9 0 18 5 32l-91 91c-9-5-18-5-32-5-9 0-18 0-32 5l-100-100-50 50z" horiz-adv-x="1000" />

<glyph glyph-name="etc-3-1" unicode="&#xe849;" d="M482 327l36-36 59 59-36 36-59-59z m-100 0l-114 114 50 50 114-114 82 82c4 5 13 9 22 9s19-4 23-9l59-59 141 141 50-50-136-141 109-109 77 77 50-50-104-104c-5-5-14-9-23-9s-18 4-23 9l-136 141-82-82c-5-5-14-9-23-9s-18 4-22 9l-60 59-90-91-50 50 86 86z m-109-318h636v-68h-636c-55 0-100 45-100 100v23h-82v68h82v68h-82v68h82v68h-82v73h82v68h-82v69h82v68h-82v68h82v77h68v-713c0-19 14-37 32-37l0 0z" horiz-adv-x="1000" />

<glyph glyph-name="etc-3-2" unicode="&#xe84a;" d="M655 246c22 31 31 68 31 104 0 36-9 73-31 105l109 109c50-59 77-137 77-214s-27-154-77-214l-109 110z m-191 440v-154c-87-18-150-91-150-182 0-100 82-186 186-186 36 0 73 9 105 32l109-110c-59-50-137-77-214-77-186 0-341 150-341 341 0 173 137 318 305 336l0 0z m36-450c-64 0-114 50-114 114s50 114 114 114c64 0 114-50 114-114s-50-114-114-114l0 0z m214 378l-109-109c-23 13-46 22-69 27v154c64-4 128-31 178-72l0 0z m-214 145c-227 0-409-182-409-409 0-227 182-409 409-409s409 182 409 409c0 227-182 409-409 409l0 0z" horiz-adv-x="1000" />

<glyph glyph-name="etc-3-3" unicode="&#xe84b;" d="M873 9h-682c-18 0-36 14-36 37v681c4 19-9 32-28 32s-36-13-36-32v-681c0-60 45-105 100-105h682c18 0 36 13 36 36v0c0 18-13 32-36 32m-155 168h14v-68c0-18 18-36 36-36s37 18 37 36v68h13c18 0 37 19 37 37v118c0 18-19 36-37 36h-13v355c0 18-19 36-37 36s-36-18-36-36v-359h-14c-18 0-36-18-36-37v-113c0-23 18-37 36-37m-436 50h14v-118c0-18 18-36 36-36 18 0 36 18 36 36v118h14c18 0 36 19 36 37v118c0 18-18 36-36 36h-14v305c0 18-13 36-36 36-18 0-36-18-36-36v-309h-14c-18 0-36-18-36-37v-118c0-18 18-32 36-32m182 273v118c0 18 18 37 36 37h14v68c0 18 18 36 36 36 18 0 36-18 36-36v-68h14c18 0 36-19 36-37v-118c0-18-18-36-36-36h-14v-359c0-19-18-37-36-37-18 0-36 18-36 37v359h-14c-18 0-36 18-36 36" horiz-adv-x="1000" />

<glyph glyph-name="etc-3-4" unicode="&#xe84c;" d="M873 9h-682c-18 0-36 14-36 37v681c4 19-9 32-28 32-22 0-36-13-36-32v-681c0-60 45-105 105-105h681c19 0 37 13 37 36l0 0c-5 18-18 32-41 32m-600 155c0-28 23-50 50-50s50 22 50 50-23 50-50 50c-27 4-50-18-50-50m523 263c27 0 50 23 50 50s-23 55-50 55-50-23-50-50 22-55 50-55m-146 214c27 0 50 23 50 50s-23 50-50 50-50-23-50-50c-4-27 18-50 50-50m-345-309c27 0 50 23 50 50s-23 50-50 50-50-23-50-50 22-50 50-50m463-127c28 0 50 22 50 50s-22 50-50 50-50-23-50-50c-4-28 18-50 50-50m-132-155c28 0 50 23 50 50s-22 50-50 50-50-23-50-50 23-50 50-50m0 359c28 0 50 23 50 50s-22 50-50 50-50-23-50-50 23-50 50-50m-181-118c0-27 22-50 50-50s50 23 50 50-23 50-50 50-50-23-50-50m-19 200c28 0 50 23 50 50s-22 50-50 50c-27 5-50-18-50-50 0-27 23-50 50-50m-181 168c0 27 22 50 50 50s50-23 50-50-23-50-50-50c-28-4-50 18-50 50" horiz-adv-x="1000" />

<glyph glyph-name="etc-3-5" unicode="&#xe84d;" d="M386 382c0-82 64-146 146-146 82 0 145 64 145 146 0 82-63 145-145 145-82 0-146-63-146-145m-113 73c0-55 32-100 82-119-5 14-5 28-5 46 0 82 50 150 123 173-23 18-50 22-77 22-69 0-123-54-123-122m468-14c0 45-36 82-82 82-4 0-9 0-9 0 41-32 64-82 64-137 18 10 27 32 27 55m82 118c0-18 18-36 36-36 18 0 37 18 37 36 0 18-19 37-37 37-18-5-36-19-36-37m-518 82c27 0 50 23 50 50 0 27-23 50-50 50s-50-23-50-50c0-27 22-50 50-50m500-336c0-19 13-32 31-32 19 0 32 13 32 32 0 18-13 31-32 31-18 5-31-13-31-31m-128-141c0-37 28-64 64-64 36 0 64 27 64 64 0 36-28 63-64 63-36 0-64-31-64-63m-381-73c31 0 59 27 59 59 0 32-28 59-59 59-32 0-60-27-60-59 0-32 28-59 60-59m468 500c45 0 82 36 82 82s-37 86-82 86c-46 0-82-36-82-82s36-86 82-86m145-614l0 0c0-18-13-36-36-36h-682c-55 0-100 45-100 100v682c0 23 14 36 32 36s36-13 36-36v-682c0-18 14-36 37-36h681c19 4 32-10 32-28" horiz-adv-x="1000" />

<glyph glyph-name="etc-3-6" unicode="&#xe84e;" d="M305 9h100v341h-100v-341z m168 682h100v-205-136-341h-100v341 341z m173-205h100v-477h-100v341 136z m227-477h-59v477c0 37-32 69-68 69h-100v136c0 36-32 68-69 68h-100c-41 0-72-32-72-68v-273h-100c-37 0-69-32-69-68v-341h-45c-18 0-36 14-36 37v681c4 19-9 32-28 32s-36-13-36-36v-682c0-55 45-100 100-100h682c18 0 36 13 36 36v0c0 18-13 32-36 32l0 0z" horiz-adv-x="1000" />

<glyph glyph-name="etc-3-7" unicode="&#xe84f;" d="M582 650h54v-600h50v682c0 14-13 27-27 27h-100c-13 0-27-13-27-27v-686h50v604z m223-41h50v-559h54v636c0 14-13 28-27 28h-100c-14 0-27-14-27-28v-636h50c0 0 0 559 0 559z m-441-127h50v-432h50v509c0 14-14 27-28 27h-100c-13 0-27-13-27-27v-509h55v432z m-223-155h50v-277h50v355c0 13-14 27-27 27h-96c-13-5-27-14-27-27v-355h50v277z m-50-386h818v68h-818v-68z" horiz-adv-x="1000" />

<glyph glyph-name="etc-3-8" unicode="&#xe850;" d="M341 632l-177 41v-605l177-41v605z m568 32v-682c0-9-4-23-13-28-5-4-14-9-23-9 0 0-5 0-9 0l-241 55-241-59c-5 0-5 0-9 0-5 0-5 0-9 0l-250 54c-9 5-23 23-23 41v682c0 9 5 23 14 32 4 5 13 9 22 9 5 0 5 0 9 0l241-54 82 18c-9-23-13-41-13-64v-18l-37-9v-605l177 41v68c14-4 23-4 37-4 13 0 23 0 36 4v-68l177-41v605l-36 9v18c0 23-4 46-14 64l87-18c23-9 36-23 36-41l0 0z m-377-314c0-50 41-91 91-91 50 0 91 41 91 91 0 27-14 55-37 73-4 4-9 9-9 18h0v209c0 27-22 46-45 46-27 0-46-23-46-46v-209h0c0-9-4-14-9-18-22-18-36-46-36-73l0 0z m-64 0c0 41 18 82 46 109v191c0 59 50 109 109 109s109-50 109-109v-186c27-32 45-68 45-109 0-87-68-159-159-159s-150 68-150 154l0 0z m109 0c0 18 9 32 23 41v155c0 13 9 22 23 22 13 0 23-9 23-22v-160c13-9 22-22 22-40 0-28-22-46-45-46-23 5-46 23-46 50l0 0z" horiz-adv-x="1000" />

<glyph glyph-name="etc-3-9" unicode="&#xe851;" d="M782 64h45v145h-45v-145z m77 172c9-9 14-18 14-31v-146c0-13-5-23-14-32-9-9-18-13-32-13h-77c-9 0-9 4-9 9v209c0 9 5 9 9 9h77c14 9 23 5 32-5l0 0z m-232-81h46v50h-46v-50z m59-37l32-82c0-4 0-9 0-9 0-4-4-4-9-4h-27c-5 0-9 0-9 4l-32 87h-14v-82c0-9-4-9-9-9h-22c-10 0-10 4-10 9v209c0 9 5 9 10 9h77c9 0 23-4 32-14s13-18 13-31v-50c0-9-4-19-9-23-9-9-18-14-23-14l0 0z m-213-54h50v145h-50v-145z m77 172c9-9 14-18 14-31v-146c0-13-5-23-14-32s-18-13-32-13h-50c-9 0-22 4-32 13-9 9-13 19-13 32v146c0 9 4 22 13 31s19 14 32 14h50c14 0 23-4 32-14l0 0z m-150 14h-23c-4 0-9-4-9-9l-18-109-23 109c0 5-4 9-9 9h-18c-4 0-9-4-9-9l-23-109-18 109c0 5-4 9-9 9h-23c-4 0-4 0-9-4 0-5-4-5-4-10l36-209c0-4 5-9 9-9h27c5 0 9 5 9 9l19 91 18-91c0-4 4-9 9-9h32c4 0 9 5 9 9l36 214c0 5 0 5-9 9l0 0 0 0z m509 50v-9h-68v9c0 55-41 105-100 114-14 0-27 13-32 27-18 100-109 173-209 173-59 0-109-23-150-64-41-41-64-95-64-150 0-18-13-36-36-36-50 0-91-41-91-91 0-14 5-32 9-41l-45-59c-18 23-27 45-32 73-9 40 5 86 27 118s59 54 96 63c13 123 100 223 218 250 23 5 45 9 68 9 127 0 241-86 273-209 82-22 136-95 136-177l0 0z" horiz-adv-x="1000" />

<glyph glyph-name="etc-3-10" unicode="&#xe852;" d="M873 759l0 0c-18 0-37-13-37-36v-750c0-19 14-37 37-37 18 0 36 14 36 37v754c0 19-13 32-36 32l0 0z m-750 0l0 0c-18 0-32-13-32-32v-750c0-23 14-36 32-36s36 13 36 36v750c0 19-13 32-36 32l0 0z m641-523v-4-46-4l-55-82c0-4-4-4-9-4h-86c-5 0-9 0-9-5l-9-23 9-4c4 0 9 0 13 4v5c5 4 9 4 14 4h4c5 0 5-4 5-9v-27c0-5-5-9-9-9l-27-5c-5 0-5 0-9 0l-64 37c-9 4-18 0-14-9l0 0c0-9-4-14-13-9l-5-14c-4 0-4 4-4 4l-5 14c0 5-9 9-14 5h-4c-5 0-9-9-5-14l9-23c5-4 0-9-4-13l-5-5c-4-5-9 0-13 5l-14 27-14-9 9-32c0-5 0-9-4-9l-27-18c-5-5-14 0-14 4l-5 9v5l10 32-19-14-4-5-9-27c0-4-5-4-5-9l-36-18h-5-22c-5 0-10 4-10 9l-4 23v4l-23 37c-4 4 0 13 5 13l4 5c0 0 5 4 5 9l-5 32c0 4-4 9-9 9h-27c-5 0-9 4-9 9l0 0c0 5 4 9 9 9h23c4 0 9 5 9 9l22 82v5l32 31c0 0 5 5 5 9v23c0 5 0 5-5 5-9 4-22 18-22 27 0 9-5 105-5 105l-14-10c-4-4-9-4-13 0l-28 28c-4 0-4 4-4 9l9 18c0 5 5 5 9 5l55 4c4 0 4 0 9-4l27-23c5-5 9-5 14 0l4 4c5 9 5 14 0 19l-32 45c-4 5-4 9 0 14 5 4 5 9 5 13l-23 46c0 4-4 4-9 4h-14c-4 0-9 0-9 5l-13 23c0 4 0 9 4 13l14 14c4 0 4 4 9 0l23-5c4 0 9 0 9 5l63 91c0 4 5 4 10 4l145-4c5 0 9 4 9 9l5 32c0 4 4 9 4 9l14-5c4 0 9 0 13-4l155-259v-5l5-232 9 14c4 4 13 4 18 0l4-5c0-4 0-4 0-9l-13-23z" horiz-adv-x="1000" />

<glyph glyph-name="etc-3-11" unicode="&#xe853;" d="M755 96h-50v177h-50v-255c0-13 13-27 27-27h100c14 0 27 14 27 27v255h-50v-177h-4z m-459 127h-50v50h-55v-127c0-14 14-28 27-28h100c14 0 28 14 28 28v127h-50v-50z m231-50h-50v104h-54v-177c0-14 13-27 27-27h100c14 0 27 13 27 27v177h-50v-104z m-281 359h50v-105h50v182c0 14-14 27-28 27h-100c-13 0-27-13-27-27v-177h50l5 100 0 0z m459 23h50v-100h50v177c0 14-14 27-28 27h-100c-13 0-27-13-27-27v-177h50l5 100 0 0z m-232 54h50v-177h50v250c0 14-14 27-27 27h-96c-14 0-27-13-27-27v-255h50c0 0 0 182 0 182z m-382-282h818v50h-818v-50z" horiz-adv-x="1000" />

<glyph glyph-name="etc-3" unicode="&#xe854;" d="M214 159h568v68h-568v-68z m272 105h-72v204c0 18 13 37 36 37h100c18 0 36-14 36-37v-209h-68v123h-27v-123h-5z m-200 0h-72v282c0 18 13 36 36 36h100c18 0 36-14 36-36v-287h-72v200h-28v-195z m400 0h-68v159c0 18 14 36 37 36h100c18 0 36-13 36-36v-159h-68v72h-27v-72h-10z m-527-155h677v527h-677v-527z m691 596h-241v13c0 18-13 37-36 37h-146c-22 0-36-14-36-37v-13h-241c-32 0-59-28-59-59v-550c0-32 27-60 59-60h314v-27h-73v-9c0-32 27-59 59-59h100c32 0 59 27 59 59v9h-73v27h314c32 0 59 28 59 60v550c0 31-27 59-59 59l0 0z" horiz-adv-x="1000" />

<glyph glyph-name="etc-4-1" unicode="&#xe855;" d="M300 150c9-9 14-9 18-9 5 0 14 0 18 9 10 9 10 27 0 41-9 9-13 9-18 9-4 0-13 0-18-9-9-14-9-32 0-41m223 223c9-9 13-9 18-9s14 0 18 9c9 9 9 27 0 41-9 9-13 9-18 9s-14 0-18-9c-9-9-9-28 0-41m227 227c9-9 14-9 18-9s14 0 18 9c10 9 10 27 0 41-9 9-13 9-18 9s-13 0-18-9c-9-14-9-32 0-41m-500-500c-36 36-36 100 0 136 18 19 46 28 68 28 14 0 28-5 41-9l96 95c0 0 4 0 4 5-18 36-9 77 18 109 19 18 41 27 69 27 13 0 27-5 40-9l96 95c0 0 0 0 4 0-18 37-9 78 19 109 18 19 45 28 68 28s50-9 68-28c36-36 36-100 0-136-18-18-45-27-68-27-14 0-27 4-41 9 0 0 0 0 0-5l-96-95c14-36 10-77-18-105-18-18-41-27-68-27-14 0-27 5-41 9 0 0 0-4-4-4l-96-96c14-36 9-77-18-104-18-19-41-28-68-28s-55 5-73 23m659-123l0 0c0-18-13-36-36-36h-682c-55 0-100 45-100 105v681c0 19 14 32 32 32s36-13 36-36v-682c0-18 14-36 37-36h681c19 4 32-10 32-28" horiz-adv-x="1000" />

<glyph glyph-name="etc-4-2" unicode="&#xe856;" d="M796 732c-23 0-50-9-69-27-27-28-36-73-18-109 0 0 0 0-4 0l-96-96c-23 14-50 23-73 23s-50-9-72-23l-64 59c9 32 0 68-23 91-22 18-45 32-68 32s-50-14-68-32c-36-36-36-100 0-136 18-18 41-28 68-28 18 0 37 5 50 14l55-54c-28-46-28-105 0-150l-64-64c-14 4-27 9-41 9-23 0-50-9-68-27-36-37-36-100 0-137 18-18 45-27 68-27s50 9 68 27c28 28 37 73 19 105l63 64c23-14 50-23 73-23s50 9 73 23l59-60c-9-31 0-68 22-90 19-19 46-28 69-28s50 9 68 28c36 36 36 100 0 136-18 18-41 27-68 27-19 0-37-4-50-13l-55 54c27 46 27 105 0 150l96 96c0 0 0 0 0 4 13-4 27-9 40-9 23 0 50 9 69 27 36 37 36 100 0 137-9 18-37 27-59 27m-669 27c-22 0-36-13-36-36v-682c0-55 45-100 100-100h682c18 0 36 13 36 36v0c0 18-13 37-36 37h-682c-18 0-36 13-36 36v682c4 14-9 27-28 27m182-582c5 0 9 0 14-4l9-5 4-9c5-9 5-23-4-32-9-4-18-4-23-4-4 0-13 0-18 9-9 9-9 27 0 41 9 4 14 4 18 4m455 19c4 0 13 0 18-10 9-9 9-13 9-18s0-13-9-18c-9-9-14-9-18-9-5 0-14 0-18 9-5 5-10 18-5 27l5 9 9 5c0 5 4 5 9 5m-228 254c14 0 28-4 41-9l14-9 9-14c14-22 14-54 0-77l-9-18-14-9c-13-9-27-9-41-9-13 0-27 4-40 9l-14 9-9 13c-14 23-14 55 0 78l9 13 14 14c13 5 27 9 40 9m-227 164c5 0 14 0 18-9 5-9 9-19 5-28l0-9-9-9c-5 0-9-4-14-4-4 0-13 0-18 9-9 9-9 18-9 18s0 14 9 18c5 9 14 14 18 14m487 50c4 0 13 0 18-9 9-9 9-28 0-41-5-5-14-9-18-9-5 0-10 0-14 4l-9 5-5 9c-4 9-4 23 5 32 9 4 18 9 23 9" horiz-adv-x="1000" />

<glyph glyph-name="etc-4-3" unicode="&#xe857;" d="M632 296c-23 0-50-10-68-28-37-36-37-100 0-136 18-18 45-27 68-27 23 0 50 9 68 27 36 36 36 100 0 136-18 18-45 28-68 28m182 181c-23 0-50-9-68-27-37-36-37-100 0-136 18-18 45-28 68-28s50 10 68 28c36 36 36 100 0 136-18 18-46 27-68 27m-464 100c-23 0-50-9-68-27-36-36-36-100 0-136 18-18 41-28 68-28s50 10 68 28c37 36 37 100 0 136-18 18-45 27-68 27m496 155c-10 0-19-5-23-9l-568-573c-14-14-14-36 0-50 4-4 13-9 22-9s19 5 23 9l573 573c13 13 13 36 0 50-9 4-18 9-27 9m-314 27c-23 0-50-9-68-27-37-36-37-100 0-136 18-19 41-28 68-28 23 0 50 9 68 28 36 36 36 100 0 136-18 18-45 27-68 27m-405 0c-22 0-36-13-36-36v-682c0-55 45-100 100-100h682c18 0 36 13 36 36v0c0 18-13 37-36 37h-682c-18 0-36 13-36 36v682c4 14-9 27-28 27m505-532c4 0 14 0 18-9 9-9 9-13 9-18 0-4 0-14-9-18-9-9-14-9-18-9s-14 0-18 9c-9 9-9 14-9 18 0 5 0 14 9 18 4 9 13 9 18 9m182 182c4 0 13 0 18-9 9-9 9-27 0-41-9-9-14-9-18-9s-14 0-18 9c-10 9-10 27 0 41 4 9 13 9 18 9m-464 100c5 0 14 0 18-9 9-4 9-14 9-18 0-5 0-14-9-18-4-9-13-9-18-9-4 0-14 0-18 9-14 9-14 27 0 36 4 9 14 9 18 9m182 182c4 0 14 0 18-9 9-9 9-14 9-18 0-5 0-14-9-18-9-10-14-10-18-10-5 0-14 0-18 10-9 9-9 27 0 40 4 5 13 5 18 5" horiz-adv-x="1000" />

<glyph glyph-name="etc-4-4" unicode="&#xe858;" d="M514 377c0-18 13-31 32-31s31 13 31 31-13 28-31 28-32-14-32-28m-282-268c0 18 14 37 32 37 9 0 172 9 236 145-32 18-50 50-50 86 0 50 36 91 82 96 9 68 36 123 77 163 91 87 214 82 223 82 18 0 32-18 32-36 0-18-18-32-37-32-4 0-104 0-172-64-32-31-50-72-59-127 31-18 50-50 50-86 0-46-32-87-78-96-59-150-213-200-304-200h0c-18 0-32 14-32 32m677-132l0 0c0-18-13-36-36-36h-682c-55 0-100 45-100 105v681c0 19 14 32 36 32 19 0 37-13 37-36v-682c0-18 13-36 36-36h682c14 4 27-10 27-28" horiz-adv-x="1000" />

<glyph glyph-name="etc-4-5" unicode="&#xe859;" d="M791 9c-14 0-27 14-27 27 0 14 13 28 27 28 14 0 27-14 27-28 0-13-13-27-27-27m-55 332c0 27 23 50 50 50s50-23 50-50-22-50-50-50-50 18-50 50m-236 245c-27 0-50 23-50 55 0 27 23 50 50 50s50-23 50-50c0-27-23-55-50-55m50-245c0-27-23-50-50-50s-50 23-50 50 23 50 50 50 50-23 50-50m-50-332c-14 0-27 14-27 27 0 14 13 28 27 28s27-14 27-28c0-13-13-27-27-27m-291 277c-27 0-54 23-54 50s22 50 54 50c27 0 55-22 55-50s-23-50-55-50m0-277c-13 0-27 14-27 27 0 14 14 28 27 28 14 0 27-14 27-28 5-13-9-27-27-27m614 123v95c50 14 86 59 86 114 0 68-54 118-118 118-18 0-32-4-45-9l-137 136c9 19 14 37 14 60-5 63-55 118-123 118s-118-55-118-118c0-23 4-41 14-60l-137-136c-13 0-32 9-50 9-63 0-118-54-118-118 0-55 36-100 86-114v-95c-36-14-63-50-63-91 0-55 41-100 95-100s96 41 96 95c0 41-28 78-64 91v96c50 13 86 59 86 113 0 23-9 50-18 69l132 127c9 0 14-5 23-5v-72c-50-14-87-59-87-114s37-100 87-114v-95c-37-14-64-50-64-91 0-55 41-96 96-96s95 41 95 96c0 41-27 77-64 91v95c50 14 87 59 87 114s-37 100-87 114v72c9 5 14 5 23 9l132-131c-14-19-18-41-18-69 0-54 36-100 86-113v-96c-36-13-64-50-64-91 0-54 41-95 96-95s95 41 95 95c9 41-18 78-54 96" horiz-adv-x="1000" />

<glyph glyph-name="etc-4-6" unicode="&#xe85a;" d="M500 582c-114 0-209-96-209-209s95-209 209-209 209 95 209 209-95 209-209 209z m0-196c9 0 14-4 14-13s-5-14-14-14-14 9-14 14 5 13 14 13z m0-154c-77 0-141 64-136 141 0 63 45 118 104 132v-59c-45-14-63-60-50-100 9-37 46-60 82-60 9 0 18 0 27 5 5 0 5 0 9 5l41-41c-27-14-54-23-77-23z m136 114c-4-19-9-32-18-46l-41 41c9 18 9 41 0 59-9 23-22 36-45 46l0 0v59c32-9 59-28 77-55 27-27 37-64 27-104z m-136 236c-114 0-209-96-209-209s95-209 209-209 209 95 209 209-95 209-209 209z m0-196c9 0 14-4 14-13s-5-14-14-14-14 9-14 14 5 13 14 13z m0-154c-77 0-141 64-136 141 0 63 45 118 104 132v-59c-45-14-63-60-50-100 9-37 46-60 82-60 9 0 18 0 27 5 5 0 5 0 9 5l41-41c-27-14-54-23-77-23z m136 114c-4-19-9-32-18-46l-41 41c9 18 9 41 0 59-9 23-22 36-45 46l0 0v59c32-9 59-28 77-55 27-27 37-64 27-104z m-136 236c-114 0-209-96-209-209s95-209 209-209 209 95 209 209-95 209-209 209z m0-196c9 0 14-4 14-13s-5-14-14-14-14 9-14 14 5 13 14 13z m0-154c-77 0-141 64-136 141 0 63 45 118 104 132v-59c-45-14-63-60-50-100 9-37 46-60 82-60 9 0 18 0 27 5 5 0 5 0 9 5l41-41c-27-14-54-23-77-23z m136 114c-4-19-9-32-18-46l-41 41c9 18 9 41 0 59-9 23-22 36-45 46l0 0v59c32-9 59-28 77-55 27-27 37-64 27-104z m-136 236c-114 0-209-96-209-209s95-209 209-209 209 95 209 209-95 209-209 209z m0-196c9 0 14-4 14-13s-5-14-14-14-14 9-14 14 5 13 14 13z m0-154c-77 0-141 64-136 141 0 63 45 118 104 132v-59c-45-14-63-60-50-100 9-37 46-60 82-60 9 0 18 0 27 5 5 0 5 0 9 5l41-41c-27-14-54-23-77-23z m136 114c-4-19-9-32-18-46l-41 41c9 18 9 41 0 59-9 23-22 36-45 46l0 0v59c32-9 59-28 77-55 27-27 37-64 27-104z m-136 236c-114 0-209-96-209-209s95-209 209-209 209 95 209 209-95 209-209 209z m0-196c9 0 14-4 14-13s-5-14-14-14-14 9-14 14 5 13 14 13z m0-154c-77 0-141 64-136 141 0 63 45 118 104 132v-59c-45-14-63-60-50-100 9-37 46-60 82-60 9 0 18 0 27 5 5 0 5 0 9 5l41-41c-27-14-54-23-77-23z m136 114c-4-19-9-32-18-46l-41 41c9 18 9 41 0 59-9 23-22 36-45 46l0 0v59c32-9 59-28 77-55 27-27 37-64 27-104z m-136 236c-114 0-209-96-209-209s95-209 209-209 209 95 209 209-95 209-209 209z m0-196c9 0 14-4 14-13s-5-14-14-14-14 9-14 14 5 13 14 13z m0-154c-77 0-141 64-136 141 0 63 45 118 104 132v-59c-45-14-63-60-50-100 9-37 46-60 82-60 9 0 18 0 27 5 5 0 5 0 9 5l41-41c-27-14-54-23-77-23z m136 114c-4-19-9-32-18-46l-41 41c9 18 9 41 0 59-9 23-22 36-45 46l0 0v59c32-9 59-28 77-55 27-27 37-64 27-104z m214 359h-241v13c0 18-13 37-36 37h-150c-18 0-32-14-32-37v-13h-241c-32 0-59-28-59-59v-550c0-32 27-60 59-60h314v-27h-73v-9c0-32 27-59 59-59h100c32 0 59 27 59 59v9h-73v27h314c32 0 59 28 59 60v550c0 31-27 59-59 59z m-9-596h-682v527h677v-531h5z m-341 50c114 0 209 96 209 209s-95 209-209 209-209-95-209-209 95-209 209-209z m36 346c32-9 60-28 78-55 22-27 32-68 22-104-4-19-9-32-18-46l-41 41c9 18 9 41 0 59-9 23-22 36-45 46l0 0 4 59 0 0z m-36-119c9 0 14-4 14-13s-5-14-14-14-14 9-14 14 5 13 14 13z m-36 119v-59c-41-14-59-60-46-100 9-37 46-60 82-60 9 0 18 0 27 5 5 0 5 0 9 5l41-41c-22-14-45-19-68-19-77 0-141 64-136 141-9 59 32 114 91 128z m36 77c-114 0-209-96-209-209s95-209 209-209 209 95 209 209-95 209-209 209z m0-196c9 0 14-4 14-13s-5-14-14-14-14 9-14 14 5 13 14 13z m0-154c-77 0-141 64-136 141 0 63 45 118 104 132v-59c-45-14-63-60-50-100 9-37 46-60 82-60 9 0 18 0 27 5 5 0 5 0 9 5l41-41c-27-14-54-23-77-23z m136 114c-4-19-9-32-18-46l-41 41c9 18 9 41 0 59-9 23-22 36-45 46l0 0v59c32-9 59-28 77-55 27-27 37-64 27-104z m-136 236c-114 0-209-96-209-209s95-209 209-209 209 95 209 209-95 209-209 209z m0-196c9 0 14-4 14-13s-5-14-14-14-14 9-14 14 5 13 14 13z m0-154c-77 0-141 64-136 141 0 63 45 118 104 132v-59c-45-14-63-60-50-100 9-37 46-60 82-60 9 0 18 0 27 5 5 0 5 0 9 5l41-41c-27-14-54-23-77-23z m136 114c-4-19-9-32-18-46l-41 41c9 18 9 41 0 59-9 23-22 36-45 46l0 0v59c32-9 59-28 77-55 27-27 37-64 27-104z" horiz-adv-x="1000" />

<glyph glyph-name="etc-4-7" unicode="&#xe85b;" d="M877 336c9 0 14 5 19 10 4 9 9 18 9 27 0 9-5 18-14 27l-373 346c0 9-9 13-18 13s-18-4-27-9l-159-150c-14-14-14-36 0-54 4-10 18-10 27-10s18 5 27 10l132 122 236-218-9-109h-263c27 5 50 32 50 59v50c0 36-28 64-64 64h-295c-37 0-64-32-64-64v-50c0-32 23-54 50-64v-222c-27-5-50-32-50-59v-50c0-37 27-64 64-64h295c36 0 64 27 64 64v50c0 31-23 54-50 63v50h254l-9-145h-136c-23 0-37-18-37-37 0-22 19-36 37-36h173c22 0 36 14 36 36l9 187h77c23 0 37 18 37 36v100c4 9-9 27-28 27z m-441-318h-272v23h272v-23z m-109 296h-109v22h173v-222h-173v122h109c23 0 37 19 37 37s-14 41-37 41z m109 100h-272v22h272v-22z m396-173h-368v23h368v-23z m-27 100v45l36-36c5-4 9-4 14-9h-50z" horiz-adv-x="1000" />

<glyph glyph-name="etc-4-8" unicode="&#xe85c;" d="M264 596c0-19-14-37-37-37-18 0-36 18-36 37s18 40 36 40c23 0 37-18 37-40z m336-555c23 0 36-18 36-36 0-23-18-37-36-37h-395c-64-4-114 50-114 109v546c0 63 50 113 114 113h345c23 0 36-18 36-36 0-23-18-36-36-36h-345c-23-5-37-23-37-41v-546c0-18 18-36 37-36h395z m232 464c-14 9-32 18-50 22v-345l50-9v332z m-86-391l-55-9 55-64 54 64-54 9z m-37 413c-18-4-32-13-50-22v-332l50 9v345z m-45 64c27 14 54 18 86 18 32 0 59-9 86-18v32c0 32-27 59-59 59h-50c-31 0-59-27-59-59l-4-32 0 0z m245 32v-496-4l0 0c0 0 0 0 0-5s0-4-4-9c0-4-5-4-5-4l-127-151c-9-9-18-13-27-13s-23 4-28 13l-122 146c-5 5-10 9-10 18 0 5 0 9 0 18v487c0 77 64 136 137 136h50c73 0 136-63 136-136z" horiz-adv-x="1000" />

<glyph glyph-name="etc-4-9" unicode="&#xe85d;" d="M182 164h636v504h-636v-504z m650 595c45 0 77-36 77-77v-527c0-46-36-78-77-78h-286v-45h154c32 0 55-23 55-46 0-27-28-45-55-45h-404c-32 0-55 23-55 45 0 28 27 46 55 46h159v41h-287c-45 0-77 36-77 77v532c0 41 36 77 77 77h664z m-327-336c-55 0-96 41-96 95s41 96 96 96c50 0 95-41 95-96s-45-95-95-95z m172-187v-13l-350 0v13c0 73 59 137 137 137l82 0c72-5 131-64 131-137z" horiz-adv-x="1000" />

<glyph glyph-name="etc-4" unicode="&#xe85e;" d="M159 659h677v32h-677v-32z m50-500h577v432h-577v-432z m664 600c23 0 36-13 36-36v-100c0-18-13-37-36-37h-14v-463c0-18-13-37-36-37h-291v-77h50v-68h-168v68h50v77h-287c-18 0-36 14-36 37v468h-14c-22 0-36 14-36 32v100c0 23 14 36 36 36h746z m-409-277c-46-14-78-59-78-109 0-64 50-114 114-114 50 0 96 32 109 77h-109c-18 0-36 14-36 37v109z m72-73h73c-9 37-41 64-73 73v-73z m-36 150c100 0 186-82 186-186 0-100-81-187-186-187s-186 82-186 187c0 104 86 186 186 186z" horiz-adv-x="1000" />

<glyph glyph-name="expand-horizontal" unicode="&#xe85f;" d="M500-59l-292 350h584z m-292 468h584l-292 350z" horiz-adv-x="1000" />

<glyph glyph-name="expand-vertical" unicode="&#xe860;" d="M909 350l-350-292v584z m-468-292v584l-350-292z" horiz-adv-x="1000" />

<glyph glyph-name="facebook" unicode="&#xe861;" d="M564-36v354h122l19 137h-141v86c0 41 9 68 68 68h73v123c-14 0-55 4-109 4-110 0-182-63-182-181v-100h-114v-137h123v-354h141z" horiz-adv-x="1000" />

<glyph glyph-name="file-blank" unicode="&#xe862;" d="M546 759h-273c-50 0-91-41-91-91v-636c0-50 41-91 91-91h454c50 0 91 41 91 91v454l-272 273z m181-704c0-14-9-23-22-23h-409c-14 0-23 9-23 23v591c0 13 9 22 23 22h204v-136c0-55 41-91 91-91h136v-386z" horiz-adv-x="1000" />

<glyph glyph-name="file-solid" unicode="&#xe863;" d="M786 677c23 0 41-9 60-22 18-19 22-37 22-59v-573c0-23-9-41-22-59-19-19-37-23-60-23h-572c-23 0-41 9-59 23-14 18-23 36-23 59v573c0 22 9 40 23 59 18 13 36 22 59 22h172c10 23 23 46 46 59 18 14 41 23 68 23s50-9 73-23 36-36 45-59h168z m-286 0c-14 0-23-4-27-13-9-9-14-18-14-28 0-13 5-22 14-27 9-9 18-13 27-13 14 0 23 4 27 13 9 5 14 14 14 27s-5 23-14 28c-4 9-13 13-27 13z m82-572v81h-286v-81h286z m123 163v82h-409v-82h409z m0 164v82h-409v-82h409z" horiz-adv-x="1000" />

<glyph glyph-name="flag" unicode="&#xe864;" d="M773 577h-227v46c0 27-19 45-46 45h-227c0 28-18 46-46 46s-45-18-45-46v-636c0-27 18-46 45-46s46 19 46 46v227h182v-45c0-28 18-46 45-46h273c27 0 45 18 45 46v318c0 27-18 45-45 45z m-318-227h-182v227h182v-227z m272-91h-181v227h181v-227z" horiz-adv-x="1000" />

<glyph glyph-name="folder" unicode="&#xe865;" d="M182 600v-500h636v409h-254c-37 0-73 14-96 41l-50 50h-236z m382 0h254c50 0 91-41 91-91v-409c0-50-41-91-91-91h-636c-50 0-91 41-91 91v500c0 50 41 91 91 91h254c14 0 23-5 32-14l64-63c9-9 18-14 32-14z" horiz-adv-x="1000" />

<glyph glyph-name="gift" unicode="&#xe866;" d="M818 577h-9c5 14 9 28 9 46 0 77-59 136-136 136-32 0-64-13-91-36-23 23-55 36-91 36-77 0-136-59-136-136 0-18 4-32 9-46h-191c-50 0-91-41-91-91v-454c0-50 41-91 91-91h636c50 0 91 41 91 91v454c0 50-41 91-91 91z m-136 91c27 0 45-18 45-45s-18-46-45-46-46 19-46 46 19 45 46 45z m-182 0c27 0 46-18 46-45s-19-46-46-46-45 19-45 46 18 45 45 45z m318-613c0-14-9-23-22-23h-591c-14 0-23 9-23 23v159h636v-159z m0 250h-636v159c0 13 9 22 23 22h254l-82-81 69-64 136 136 136-136 64 64-82 81h96c13 0 22-9 22-22v-159z" horiz-adv-x="1000" />

<glyph glyph-name="graph-box" unicode="&#xe867;" d="M91 623c0 77 59 136 136 136h546c77 0 136-59 136-136v-546c0-77-59-136-136-136h-546c-77 0-136 59-136 136v546z m136 45c-27 0-45-18-45-45v-546c0-27 18-45 45-45h546c27 0 45 18 45 45v546c0 27-18 45-45 45h-546z m409-182c0 28 19 46 46 46s45-18 45-46v-318c0-27-18-45-45-45s-46 18-46 45v318z m-136-90c27 0 46-19 46-46v-182c0-27-19-45-46-45s-45 18-45 45v182c0 27 18 46 45 46z m-182-137c28 0 46-18 46-45v-46c0-27-18-45-46-45s-45 18-45 45v46c0 27 18 45 45 45z" horiz-adv-x="1000" />

<glyph glyph-name="graph" unicode="&#xe868;" d="M873 9h-68v441c0 36-32 68-69 68h-100v137c0 36-31 68-68 68h-100c-36 0-68-32-68-68v-273h-104c-37 0-69-32-69-68v-309h-41c-18 0-31 18-27 36v682c0 23-13 36-32 36s-36-13-36-36v-687c0-54 45-95 100-95h682c18 0 36 13 36 36 0 18-13 32-36 32z m-473 0h-104v309h100v-309z m168 0h-100v650h100v-650z m168 0h-100v441h100v-441z" horiz-adv-x="1000" />

<glyph glyph-name="grid" unicode="&#xe869;" d="M227 668h182c27 0 46-18 46-45v-182c0-27-19-45-46-45h-182c-27 0-45 18-45 45v182c0 27 18 45 45 45z m364 0h182c27 0 45-18 45-45v-182c0-27-18-45-45-45h-182c-27 0-45 18-45 45v182c0 27 18 45 45 45z m0-363h182c27 0 45-19 45-46v-182c0-27-18-45-45-45h-182c-27 0-45 18-45 45v182c0 27 18 46 45 46z m-364 0h182c27 0 46-19 46-46v-182c0-27-19-45-46-45h-182c-27 0-45 18-45 45v182c0 27 18 46 45 46z" horiz-adv-x="1000" />

<glyph glyph-name="heart" unicode="&#xe86a;" d="M746 400c13 27 22 55 22 82 0 64-45 114-104 114-32 0-68-19-91-46l-68-86-78 82c-22 27-59 45-91 45-59 0-104-45-104-114 0-22 4-50 18-77 32-64 86-118 246-268 163 150 213 204 250 268z m-310 255l64-50 59 50c32 18 64 27 100 27 109 0 196-91 196-205 0-141-123-254-305-427l-18-18c-18-18-46-18-64 0l-22 18c-182 177-300 291-300 427 0 114 86 205 195 205 32 0 64-9 95-27z" horiz-adv-x="1000" />

<glyph glyph-name="home" unicode="&#xe86b;" d="M127-59h728l4 423h14c41 0 63 54 32 82l-91 77v68c0 27-18 45-46 45-4 0-9 0-13 0-19-4-28-18-32-36l-177 150c-19 14-41 14-60 0l-390-304c-32-28-14-82 27-82h4v-423z m632 505c5-5 9-10 9-19v-372c0-14-9-23-22-23h-73v182c0 27-18 45-46 45h-91c-27 0-45-18-45-45l5-182h-255c-14 0-23 9-23 23v363c0 9 5 14 9 18l273 210c9 4 23 4 27 0l232-200z" horiz-adv-x="1000" />

<glyph glyph-name="image-1" unicode="&#xe86c;" d="M327 714h496c23 0 41-18 41-41v-496c0-22-18-41-41-41h-496c-22 0-41 19-41 41v496c0 23 19 41 41 41z m300-228c-4 10-22 10-27 0l-95-145-28 45c-4 10-22 10-27 0l-86-131 86 0h332l-155 231z m-409 73c0 23-18 41-41 41-22 5-41-18-41-41v-450c0-68 55-123 123-123h450c23 0 41 19 41 41s-18 41-41 41h-450c-23 0-41 18-41 41v450z" horiz-adv-x="1000" />

<glyph glyph-name="image" unicode="&#xe86d;" d="M818 555c0 13-9 22-22 22h-591c-14 0-23-9-23-22v-409c0-14 9-23 23-23h591c13 0 22 9 22 23v409z m-636 113h636c50 0 91-41 91-91v-454c0-50-41-91-91-91h-636c-50 0-91 41-91 91v454c0 50 41 91 91 91z m477-318c37 0 68 32 68 68s-31 68-68 68-68-31-68-68 32-68 68-68z m-350 18l-82-159v-41h546l-73 87c-9 13-27 18-45 13l-155-36-114 145c-22 28-63 23-77-9z" horiz-adv-x="1000" />

<glyph glyph-name="import-template" unicode="&#xe86e;" d="M909 418v-341c0-77-59-136-136-136h-273c-18 0-36 13-36 36s13 37 36 37h273c36 0 68 32 68 68v336c0 37-32 68-68 68h-409c-18 0-32 14-32 32s14 37 32 37h341v68h-173c-18 0-32 13-32 32 0 18-9 31-27 36h-277c-19 0-32-9-37-27v-246c0-18-13-36-36-36s-32 18-32 36v237c0 59 41 104 95 104h278c45 0 82-27 95-68h141c36 0 68-27 68-64 0 0 0 0 0 0v-72c82 0 141-59 141-137z m-413-182c0 5 4 10 4 14l0 0c0 5 0 9-4 14 0 4-5 9-10 9l-100 100 0 0c-18 9-36 4-45-9-9-14-5-28 0-37l45-45h-131c-55 0-96-46-96-100v-173c0-18 14-36 37-36s31 18 31 36v177c0 19 19 28 37 28h122l-45-46c-14-13-18-32-5-50 14-13 32-18 50-4 5 4 5 4 10 9l100 104c-5 0 0 5 0 9l0 0z" horiz-adv-x="1000" />

<glyph glyph-name="important-round" unicode="&#xe86f;" d="M500-59c-227 0-409 182-409 409s182 409 409 409 409-182 409-409-182-409-409-409z m0 91c177 0 318 141 318 318s-141 318-318 318-318-141-318-318 141-318 318-318z m46 136c0-27-19-45-46-45s-45 18-45 45v228c0 27 18 45 45 45s46-18 46-45v-228z m-91 364c0 27 18 45 45 45s46-18 46-45-19-46-46-46-45 19-45 46z" horiz-adv-x="1000" />

<glyph glyph-name="important" unicode="&#xe870;" d="M409 55c0 50 41 91 91 91s91-41 91-91-41-91-91-91-91 41-91 91z m0 272v319c0 50 41 90 91 90s91-40 91-90v-319c0-50-41-91-91-91s-91 41-91 91z" horiz-adv-x="1000" />

<glyph glyph-name="instagram" unicode="&#xe871;" d="M682 759h-364c-127 0-227-100-227-227v-364c0-122 100-227 227-227h364c123 0 227 100 227 227v364c0 127-100 227-227 227z m154-591c0-86-68-154-154-154h-364c-86 0-154 68-154 154v364c0 86 68 154 154 154h364c86 0 154-68 154-154v-364z m-336 396c-118 0-214-96-214-214 0-118 96-214 214-214s214 96 214 214c0 118-96 214-214 214z m0-355c-77 0-141 64-141 141 0 77 64 141 141 141s141-64 141-141c0-77-64-141-141-141z m232 432c-14 0-32-5-41-18-9-9-18-27-18-41 0-14 4-32 18-41 9-9 27-18 41-18 14 0 32 4 41 18 9 9 18 27 18 41 0 14-5 32-18 41-9 13-23 18-41 18z" horiz-adv-x="1000" />

<glyph glyph-name="layer" unicode="&#xe872;" d="M877 200c23-14 23-45 0-54l-359-173c-9-5-22-5-32 0l-359 173c-22 13-22 45 0 54l32 18c9 5 23 5 32 0l291-141c9-4 23-4 32 0l291 141c9 5 22 5 31 0l41-18z m0 177c23-13 23-45 0-54l-359-173c-9-4-22-4-32 0l-363 173c-23 13-23 45 0 54l32 19c9 4 22 4 31 0l291-141c9-5 23-5 32 0l291 141c9 4 23 4 32 0l45-19z m-754 123c-23 14-23 46 0 55l359 172c9 5 23 5 32 0l363-172c23-14 23-46 0-55l-363-177c-9-5-23-5-32 0l-359 177z" horiz-adv-x="1000" />

<glyph glyph-name="link" unicode="&#xe873;" d="M373 655c-18 18-46 18-64 0l-95-96c-18-18-18-45 0-63l63-64c19-18 19-46 0-64s-45-18-63 0l-68 64c-55 50-55 136 0 186l95 96c55 54 141 54 191 0l191-191c54-55 54-141 0-191l-59-64c-18-18-46-18-64 0s-18 46 0 64l64 64c18 18 18 45 0 63l-191 196z m132-223c18-18 18-46 0-64l-64-63c-18-19-18-46 0-64l191-191c18-18 45-18 64 0l95 96c18 18 18 45 0 63l-64 64c-18 18-18 45 0 63 19 19 46 19 64 0l64-63c54-55 54-141 0-191l-100-96c-55-54-141-54-191 0l-191 191c-55 55-55 141 0 191l63 64c23 14 46 14 69 0z" horiz-adv-x="1000" />

<glyph glyph-name="list" unicode="&#xe874;" d="M796 714h-591c-14 0-23-9-23-23v-682c0-14 9-23 23-23h591c13 0 22 9 22 23v682c0 14-9 23-22 23z m0 91c63 0 113-50 113-114v-682c0-64-50-114-113-114h-591c-64 0-114 50-114 114v682c0 64 50 114 114 114h591z m-523-409c0-28 18-46 45-46h318c28 0 46 18 46 46 0 27-18 45-46 45h-318c-27 0-45-18-45-45z m0-182c0-28 18-46 45-46h137c27 0 45 18 45 46s-18 45-45 45h-137c-27 0-45-18-45-45z m0 363c0-27 18-45 45-45h364c27 0 45 18 45 45s-18 46-45 46h-364c-27 0-45-18-45-46z" horiz-adv-x="1000" />

<glyph glyph-name="lock" unicode="&#xe875;" d="M682 546v77c0 77-59 136-136 136h-91c-78 0-137-59-137-136v-77c-109-50-182-160-182-287 0-177 141-318 319-318h91c177 0 318 141 318 318 0 127-73 237-182 287z m-273 77c0 27 18 45 46 45h91c27 0 45-18 45-45v-50c-14 4-32 4-45 4h-91c-14 0-32 0-46-4v50z m137-591h-91c-128 0-228 100-228 227s100 227 228 227h91c127 0 227-100 227-227s-100-227-227-227z m-46 364c-50 0-91-41-91-91 0-32 18-64 46-78v-59c0-27 18-45 45-45s46 18 46 45v59c27 14 45 46 45 78 0 50-41 91-91 91z m0 0c-50 0-91-41-91-91 0-32 18-64 46-78v-59c0-27 18-45 45-45s46 18 46 45v59c27 14 45 46 45 78 0 50-41 91-91 91z m0 0c-50 0-91-41-91-91 0-32 18-64 46-78v-59c0-27 18-45 45-45s46 18 46 45v59c27 14 45 46 45 78 0 50-41 91-91 91z" horiz-adv-x="1000" />

<glyph glyph-name="login" unicode="&#xe876;" d="M796 741c13-14 18-27 18-41v-700c0-14-5-27-18-41s-28-18-41-18h-469c-9 0-22 4-27 13-9 10-13 19-13 28 0 13 4 23 13 32 9 9 18 13 27 13h428c4 0 9 0 13 5s5 9 5 14v613c0 5 0 9-5 14s-9 4-13 4h-428c-9 0-22 0-27 9-9 10-13 19-13 32 0 18 4 28 18 37 9 0 13 4 22 4h469c18 0 31-4 41-18z m-455-314c5 0 9 0 9 5 9 0 9 4 9 9v55c0 9 5 18 14 22 4 0 9 5 9 5 4 0 9 0 14-5l163-136c9-5 9-14 9-23s-4-18-9-23l-163-136c-5-4-10-4-14-4s-9 0-9 4c-9 5-14 14-14 23v54c0 5 0 9-4 9-5 5-5 5-9 5h-128c-9 0-18 5-22 9-5-4-10 5-10 14v82c0 9 5 18 10 22s13 9 22 9h123z" horiz-adv-x="1000" />

<glyph glyph-name="logout" unicode="&#xe877;" d="M536 700v-227h-50c-9 0-22-5-31-5v191c0 5 0 9-5 9-4 5-14 9-18 9h-227c-9 0-19 5-28 14-9 5-13 14-13 27 0 18 4 28 18 37 9 0 18 4 23 4h268c13 0 27-4 41-18 13-9 22-23 22-41z m-54-464h50v-236c0-18-5-27-18-41-14-14-28-18-41-18h-268c-9 0-19 4-28 13-9 10-13 19-13 28 0 13 4 23 13 32 9 9 19 13 28 13h227c4 0 9 0 9 5 5 4 5 4 5 14v200c13-5 22-10 36-10z m123 191c4 0 9 0 9 5 4 0 9 4 9 9v50c0 9 4 18 13 23 5 0 10 4 10 4 4 0 9 0 13-4l164-137c9-4 9-13 9-22s-5-19-9-23l-164-136c-4-5-9-5-13-5s-10 0-10 5c-9 4-13 13-13 22v55c0 4 0 9-5 9-4 4-4 4-9 4h-127c-9 0-18 5-23 10-4 4-9 13-9 22v78c0 9 5 18 9 22 5 5 14 9 23 9h123z" horiz-adv-x="1000" />

<glyph glyph-name="loop" unicode="&#xe878;" d="M859 573l-109-109c-14-14-32-5-32 13v64h-495v-155c0-27-18-45-46-45s-45 18-45 45v155c0 50 41 91 91 91h495v64c0 18 18 22 32 13l109-109c5-9 5-18 0-27z m9-409c0-50-41-91-91-91h-495v-68c0-19-18-23-32-14l-109 109c-9 9-9 18 0 27l109 114c14 14 32 5 32-14v-63h495v154c0 28 19 46 46 46s45-18 45-46c0 0 0-154 0-154z" horiz-adv-x="1000" />

<glyph glyph-name="mail" unicode="&#xe879;" d="M182 668h636c50 0 91-41 91-91v-454c0-50-41-91-91-91h-636c-50 0-91 41-91 91v454c0 50 41 91 91 91z m636-113c0 13-9 22-22 22h-591c-14 0-23-9-23-22v-409c0-14 9-23 23-23h591c13 0 22 9 22 23v409z m-318-300l-59 41-95-55c-23-14-50-5-60 23-9 18 0 41 19 50l63 36-68 46c-14 9-23 27-14 45 10 23 41 32 60 18l154-104 155 104c22 14 50 5 59-18 9-18 0-41-14-50l-64-45 60-37c18-9 22-32 18-50-9-23-37-32-59-18l-91 55-64-41z" horiz-adv-x="1000" />

<glyph glyph-name="man" unicode="&#xe87a;" d="M605 327h-209c-146-9-260-127-260-272 0-50 41-91 91-91h546c50 0 91 41 91 91 0 145-114 263-259 272z m168-250c0-13-9-22-23-22h-500c-14 0-23 9-23 22v23c0 100 82 136 182 136h182c100 0 182-36 182-136v-23z m-273 659c-100 0-182-81-182-181 0-55 23-105 64-137 32-27 73-45 118-45s86 18 118 45c37 32 64 82 64 137 0 100-82 181-182 181z m0-272c-50 0-91 41-91 91s41 91 91 91 91-41 91-91-41-91-91-91z" horiz-adv-x="1000" />

<glyph glyph-name="map-pin" unicode="&#xe87b;" d="M486-14c0 0 0 0 0 0l0 0z m37 32c27 32 63 78 91 132 68 114 113 236 113 314 0 150-100 250-227 250-132 0-227-100-227-250 0-78 45-205 109-318 32-55 64-100 91-132 9-9 18-19 23-23 9 9 18 18 27 27z m-23-123c-95 0-318 360-318 569s141 341 318 341 318-141 318-341-222-569-318-569z m0 455c77 0 136 59 136 136s-59 137-136 137-136-59-136-137 59-136 136-136z m0 91c-27 0-45 18-45 45s18 46 45 46 46-18 46-46-19-45-46-45z" horiz-adv-x="1000" />

<glyph glyph-name="menu-1-1" unicode="&#xe87c;" d="M222 672a14 14 0 0 0 14 14h264a14 14 0 0 0 0-28h-264a14 14 0 0 0-14 14z m0 59a14 14 0 0 0 14 14h147a14 14 0 0 0 14-14 16 16 0 0 0-14-15h-147a16 16 0 0 0-14 15z m33-459a16 16 0 1 0 22-22 13 13 0 0 0-21 0 14 14 0 0 0-4 11 18 18 0 0 0 3 11z m161 162a16 16 0 0 0 26-11 23 23 0 0 0-4-10 13 13 0 0 0-21 0 14 14 0 0 0-4 10 23 23 0 0 0 3 11z m250 102a16 16 0 1 0 22-22 13 13 0 0 0-21 0 14 14 0 0 0-4 11 13 13 0 0 0 3 11z m-97-241a13 13 0 0 0-21 0 16 16 0 1 0 27 11 16 16 0 0 0-6-11z m-303-76a43 43 0 0 1 43 43 66 66 0 0 1-3 18l100 106a51 51 0 0 1 21-6 43 43 0 0 1 20 4l72-61a34 34 0 0 1-3-17 44 44 0 1 1 87 0 43 43 0 0 1-12 30l79 147h7a44 44 0 0 1 31 75 44 44 0 0 1-63 0 44 44 0 0 1-12-32 43 43 0 0 1 12-29l-79-147a36 36 0 0 1-25-5l-72 61a34 34 0 0 1 3 17 44 44 0 0 1-13 32 44 44 0 0 1-62 0 44 44 0 0 1-13-32 66 66 0 0 1 4-17l-100-106a45 45 0 0 1-52-8 45 45 0 0 1 0-62 43 43 0 0 1 30-11z m512 336v-382a14 14 0 0 0-14-14h-528a14 14 0 0 0 0 28h512v368a14 14 0 0 0 15 14 14 14 0 0 0 15-14z m-87-571h59v44h-59z m-439 0h59v44h-59z m0 72h59v44h-59z m351 0h60v44h-60z m0-72h60v44h-60z m-89 0h59v44h-59z m-87 0h59v44h-59z m-88 0h59v44h-59z m0 72h59v44h-59z m175 0h59v44h-59z m-87 0h59v44h-59z m264 0h59v44h-59z m73 74h-528a14 14 0 0 1-14-14v-147a14 14 0 0 1 14-15h528a14 14 0 0 1 14 15v147a14 14 0 0 1-14 14z m-586-219v878h469v-161a14 14 0 0 1 14-14h161v-703z m497 858l125-125h-125z m177-141a19 19 0 0 1-7 13l-173 173h0c-2 2-3 2-5 3h-504a12 12 0 0 1-15-12v-908a14 14 0 0 1 15-14h673a14 14 0 0 1 14 14l2 731z" horiz-adv-x="1000" />

<glyph glyph-name="menu-1-2" unicode="&#xe87d;" d="M916 366a8 8 0 0 0 0-11 8 8 0 0 0-6-2 8 8 0 0 0-7 7 8 8 0 0 0 2 6 8 8 0 0 0 5 2 8 8 0 0 0 6-2z m-34-16a8 8 0 0 0 0-11 8 8 0 0 0-11 0 8 8 0 0 0 0 11 8 8 0 0 0 11 0z m-34-11a8 8 0 0 0 0-10 8 8 0 0 0-5-3 8 8 0 0 0-6 3 8 8 0 0 0-2 5 8 8 0 0 0 8 8 8 8 0 0 0 5-3z m68 49a8 8 0 0 0 0-10 8 8 0 0 0-6-2 8 8 0 0 0-5 2 8 8 0 0 0-2 5 8 8 0 0 0 7 8 8 8 0 0 0 6-3z m-34-12a8 8 0 0 0 0-11 8 8 0 0 0-11 0 8 8 0 0 0 0 11 8 8 0 0 0 11 0z m-65-18a8 8 0 0 0 0-11 8 8 0 0 0-5-2 8 8 0 0 0-6 2 8 8 0 0 0-2 5 8 8 0 0 0 2 6 8 8 0 0 0 6 2 8 8 0 0 0 5-2z m31 7a8 8 0 0 0 0-11 8 8 0 0 0-5-2 8 8 0 0 0-8 8 8 8 0 0 0 3 5 8 8 0 0 0 5 2 8 8 0 0 0 5-2z m68 47a8 8 0 0 0 0-11 8 8 0 0 0-11 0 8 8 0 0 0-2 6 8 8 0 0 0 2 5 8 8 0 0 0 6 2 8 8 0 0 0 5-2z m-34-10a8 8 0 0 0 0-11 8 8 0 0 0-5-2 8 8 0 0 0-6 2 8 8 0 0 0 0 11 8 8 0 0 0 6 2 8 8 0 0 0 5-2z m34 80a8 8 0 0 0 0-11 8 8 0 0 0-5-2 8 8 0 0 0-6 2 8 8 0 0 0-2 6 8 8 0 0 0 8 7 8 8 0 0 0 5-2z m-34-16a8 8 0 0 0 0-10 8 8 0 0 0-5-3 8 8 0 0 0-6 3 8 8 0 0 0 0 10 8 8 0 0 0 6 3 8 8 0 0 0 5-3z m-34-10a8 8 0 0 0 0-11 8 8 0 0 0-5-2 8 8 0 0 0-5 2 8 8 0 0 0-3 6 8 8 0 0 0 8 7 8 8 0 0 0 5-2z m68 50a8 8 0 0 0 0-10 8 8 0 0 0-11 0 8 8 0 0 0-2 5 8 8 0 0 0 2 5 7 7 0 0 0 11 0z m-34-12a8 8 0 0 0 0-11 8 8 0 0 0-5-2 8 8 0 0 0-6 2 8 8 0 0 0 0 11 8 8 0 0 0 6 2 8 8 0 0 0 5-2z m-65-19a8 8 0 0 0 0-11 8 8 0 0 0-11 0 8 8 0 0 0 0 11 8 8 0 0 0 11 0z m31 8a8 8 0 0 0 0-11 8 8 0 0 0-5-2 8 8 0 0 0-5 2 8 8 0 0 0-3 5 8 8 0 0 0 8 8 8 8 0 0 0 5-2z m68 46a8 8 0 1 0-11-10 8 8 0 0 0-2 5 8 8 0 0 0 2 5 8 8 0 0 0 11 0z m-34-10a8 8 0 0 0 0-11 8 8 0 0 0-5-2 8 8 0 0 0-6 2 8 8 0 0 0 0 11 8 8 0 0 0 6 2 8 8 0 0 0 5-2z m34 80a8 8 0 0 0 0-11 8 8 0 0 0-11 0 8 8 0 0 0-2 6 8 8 0 0 0 2 5 7 7 0 0 0 11 0z m-34-15a8 8 0 0 0 0-11 8 8 0 0 0-5-2 8 8 0 0 0-6 2 8 8 0 0 0 0 11 8 8 0 0 0 6 2 8 8 0 0 0 5-2z m-34-11a8 8 0 0 0 0-11 8 8 0 0 0-10 0 8 8 0 0 0 0 11 8 8 0 0 0 10 0z m68 49a8 8 0 1 0-11-11 8 8 0 0 0-2 6 8 8 0 0 0 2 5 8 8 0 0 0 11 0z m-34-12a8 8 0 0 0 0-11 8 8 0 0 0-5-2 8 8 0 0 0-6 2 8 8 0 0 0 0 11 8 8 0 0 0 6 2 8 8 0 0 0 5-2z m-65-19a8 8 0 0 0 0-10 8 8 0 0 0-5-3 8 8 0 0 0-6 3 8 8 0 0 0-2 5 8 8 0 0 0 9 8 8 8 0 0 0 5-2z m31 8a8 8 0 0 0 0-11 8 8 0 0 0-10 0 8 8 0 0 0-2 5 8 8 0 0 0 2 6 7 7 0 0 0 10 0z m68 47a8 8 0 0 0 0-11 8 8 0 0 0-5-2 8 8 0 0 0-8 7 8 8 0 0 0 2 6 8 8 0 0 0 6 2 8 8 0 0 0 5-2z m-34-11a8 8 0 0 0 0-11 8 8 0 0 0-5-2 8 8 0 0 0-6 2 8 8 0 0 0 0 11 8 8 0 0 0 6 2 8 8 0 0 0 5-2z m-461-269a8 8 0 0 0 0-11 8 8 0 0 0-11 0 8 8 0 0 0 0 11 8 8 0 0 0 11 0z m-34-16a8 8 0 0 0 0-11 8 8 0 0 0-11 0 8 8 0 0 0 0 11 8 8 0 0 0 11 0z m-34-11a8 8 0 0 0 0-10 8 8 0 0 0-5-3 8 8 0 0 0-6 3 8 8 0 0 0-2 5 8 8 0 0 0 2 5 8 8 0 0 0 6 3 8 8 0 0 0 5-3z m68 49a8 8 0 0 0 0-10 8 8 0 0 0-11 0 8 8 0 0 0 0 10 8 8 0 0 0 11 0z m-34-12a8 8 0 0 0 0-11 8 8 0 0 0-11 0 8 8 0 0 0 0 11 8 8 0 0 0 11 0z m-65-18a8 8 0 0 0 0-11 8 8 0 0 0-11 0 9 9 0 0 0-2 5 8 8 0 0 0 2 6 8 8 0 0 0 11 0z m31 7a8 8 0 0 0 0-11 8 8 0 0 0-5-2 8 8 0 0 0-6 2 8 8 0 0 0-2 6 8 8 0 0 0 2 5 8 8 0 0 0 6 2 8 8 0 0 0 5-2z m68 47a8 8 0 0 0 0-11 8 8 0 0 0-11 0 9 9 0 0 0-2 6 8 8 0 0 0 13 5z m-34-10a8 8 0 0 0 0-11 8 8 0 0 0-5-2 8 8 0 0 0-8 7 8 8 0 0 0 2 6 8 8 0 0 0 6 2 8 8 0 0 0 5-2z m23 69a8 8 0 0 0 0 11 8 8 0 0 0 11 0 8 8 0 0 0 0-11 8 8 0 0 0-11 0z m-34-15a8 8 0 0 0-2 5 8 8 0 0 0 2 5 8 8 0 0 0 6 3 8 8 0 0 0 5-3 8 8 0 0 0 0-10 8 8 0 0 0-5-3 8 8 0 0 0-6 3z m-34-11a8 8 0 0 0-2 6 8 8 0 0 0 2 5 8 8 0 0 0 6 2 8 8 0 0 0 5-2 8 8 0 0 0 0-11 8 8 0 0 0-5-2 8 8 0 0 0-6 2z m68 49a9 9 0 0 0-2 6 8 8 0 0 0 2 5 8 8 0 0 0 11 0 8 8 0 0 0 0-11 8 8 0 0 0-11 0z m-34-12a8 8 0 0 0-2 5 8 8 0 0 0 2 6 8 8 0 0 0 6 2 8 8 0 0 0 5-2 8 8 0 0 0 0-11 8 8 0 0 0-5-2 8 8 0 0 0-6 2z m-65-18a8 8 0 0 0 11 11 8 8 0 0 0 0-11 8 8 0 0 0-11 0z m31 8a8 8 0 0 0-2 5 8 8 0 0 0 2 6 8 8 0 0 0 6 2 8 8 0 0 0 5-2 8 8 0 0 0 0-11 8 8 0 0 0-5-2 8 8 0 0 0-6 2z m68 47a8 8 0 0 0-2 5 8 8 0 0 0 13 5 8 8 0 0 0 0-10 8 8 0 0 0-11 0z m-34-11a8 8 0 0 0-2 5 8 8 0 0 0 7 8 8 8 0 0 0 6-2 8 8 0 0 0 0-11 8 8 0 0 0-6-2 8 8 0 0 0-5 2z m34 80a9 9 0 0 0-2 6 8 8 0 0 0 2 5 8 8 0 0 0 11 0 8 8 0 0 0 0-11 8 8 0 0 0-11 0z m-34-15a8 8 0 0 0-2 5 8 8 0 0 0 7 8 8 8 0 0 0 6-2 8 8 0 0 0 0-11 8 8 0 0 0-6-2 8 8 0 0 0-5 2z m-34-11a8 8 0 0 0 0 11 9 9 0 0 0 6 2 8 8 0 0 0 0-15 9 9 0 0 0-6 2z m68 49a8 8 0 0 0-2 6 8 8 0 0 0 13 5 8 8 0 0 0 0-11 8 8 0 0 0-11 0z m-34-11a8 8 0 0 0-2 5 8 8 0 0 0 2 6 8 8 0 0 0 5 2 8 8 0 0 0 6-2 8 8 0 0 0 0-11 8 8 0 0 0-6-2 8 8 0 0 0-5 2z m-65-19a8 8 0 0 0-2 5 9 9 0 0 0 2 6 8 8 0 0 0 11 0 8 8 0 0 0 0-11 8 8 0 0 0-11 0z m31 7a8 8 0 0 0-2 6 8 8 0 0 0 2 5 8 8 0 0 0 6 2 8 8 0 0 0 5-2 8 8 0 0 0 0-11 8 8 0 0 0-5-2 9 9 0 0 0-6 2z m68 47a8 8 0 0 0 0 11 8 8 0 0 0 11 0 8 8 0 0 0 0-11 8 8 0 0 0-11 0z m-34-10a8 8 0 0 0-2 5 8 8 0 0 0 7 8 8 8 0 0 0 6-3 8 8 0 0 0 0-10 8 8 0 0 0-6-3 8 8 0 0 0-5 3z m371 36c-109 0-190 34-190 64s81 64 190 64 191-34 191-64-82-64-190-64z m191-54c0-31-82-64-190-64s-190 33-190 64v68l7-4c40-25 110-40 182-40s142 16 183 40l7 4z m0-119c0-30-82-64-190-64s-190 34-190 64v69l7-5c40-24 110-39 183-39s142 15 182 39l8 5z m0-118c0-30-82-64-190-64s-190 34-190 64v68l7-4c40-25 110-40 183-40s142 16 182 40l8 4z m-413-370v-25a16 16 0 0 1 16-16h25v-49h-133v49h26a16 16 0 0 1 15 16v25z m-462 370v68l7-4c40-25 110-40 183-40s142 16 182 40l8 4v-68c0-30-82-64-190-64s-190 34-190 64z m0 187l7-4c40-25 110-40 183-40s142 16 182 40l8 4v-68c0-30-82-64-190-64s-190 33-190 63z m0 119l7-5c41-25 111-40 183-40s142 16 183 40l7 4v-68c0-30-81-64-190-64s-190 33-190 64z m190 113c109 0 190-34 190-64s-81-64-190-64-190 34-190 64 81 64 190 64z m494 30c-109 0-222-35-222-94v-355c0-57 102-90 202-94h4v-128h-462v128h4c100 4 202 37 202 94v355c0 59-113 94-222 94s-222-35-222-94v-355c0-57 102-90 202-94h4v-143a16 16 0 0 1 16-16h231v-87h-25a16 16 0 0 1-16-16v-23h-25a16 16 0 0 1-16-16v-25h-190a16 16 0 1 1 0-29h190v-24a16 16 0 0 1 15-16h165a16 16 0 0 1 16 16v24h190a16 16 0 1 1 0 30h-190v24a16 16 0 0 1-15 16h-26v24a16 16 0 0 1-16 15h-25v88h231a16 16 0 0 1 16 16v142h4c100 4 201 37 201 94v355c0 59-112 94-221 94z" horiz-adv-x="1000" />

<glyph glyph-name="menu-1-3" unicode="&#xe87e;" d="M316 84h82v83h-82z m0 123h82v82h-82z m0 122h82v82h-82z m122-245h245v83h-245z m0 123h245v82h-245z m0 122h245v82h-245z m-162 103v-367a20 20 0 0 1 20-21h407a20 20 0 0 1 20 21v367a20 20 0 0 1-20 20h-407a20 20 0 0 1-20-20z m529-510h-611v856h408v-183a20 20 0 0 1 20-21h183z m-163 827l134-133h-134z m198-140h0l-2 2s0 0 0 0l-202 202a19 19 0 0 1-9 5l-2 1a16 16 0 0 1-3 0h-449a20 20 0 0 1-20-21v-896a20 20 0 0 1 20-21h653a21 21 0 0 1 20 21v689a16 16 0 0 1 1 4 20 20 0 0 1-7 14z" horiz-adv-x="1000" />

<glyph glyph-name="menu-1" unicode="&#xe87f;" d="M426 316a14 14 0 0 1 9-13 14 14 0 0 1 15 1l144 116a16 16 0 0 1 0 22l-144 116a15 15 0 0 1-24-12v-43h-373a14 14 0 0 1-15-14v-116a14 14 0 0 1 15-14h373z m-85 351a15 15 0 0 0 15 15h259a15 15 0 0 0 0-29h-259a15 15 0 0 0-15 14z m0 58a15 15 0 0 0 15 14h144a14 14 0 0 0 0-28h-144a15 15 0 0 0-15 14z m438-384a16 16 0 0 0 10 4 14 14 0 0 0 14-14 14 14 0 0 0-4-10 16 16 0 0 0-16-3h0a13 13 0 0 0-4 3 14 14 0 0 0-4 10 16 16 0 0 0 4 10z m-96-237a16 16 0 0 0-20 0 14 14 0 0 0-5 11 14 14 0 0 0 4 9 3 3 0 0 1 2 2 14 14 0 0 0 9 3 14 14 0 0 0 5-1h0l2-1a33 33 0 0 0 3-2 14 14 0 0 0 4-10 16 16 0 0 0-4-10z m-150 116a13 13 0 0 1-2 2 17 17 0 0 0-2 8 14 14 0 0 0 4 11 16 16 0 0 0 10 4 15 15 0 0 0 10-4 14 14 0 0 0 5-10 14 14 0 0 0-5-11 2 2 0 0 1-1-1 15 15 0 0 0-19 0z m-138-159a16 16 0 0 0-21 0 14 14 0 0 0-4 10 14 14 0 0 0 4 10 14 14 0 0 0 10 5 15 15 0 0 0 11-4 14 14 0 0 1 2-3 16 16 0 0 0 2-8 16 16 0 0 0-4-10z m283 96a45 45 0 0 1-25-4l-70 59a45 45 0 0 1 3 18 42 42 0 0 1-9 26 29 29 0 0 1-3 5 44 44 0 0 1-61 0 43 43 0 0 1-4-5 42 42 0 0 1-9-26 41 41 0 0 1 3-16h0l-98-104h0a45 45 0 0 1-51-7 43 43 0 0 1 61-62 43 43 0 0 1 13 32 41 41 0 0 1-3 15l98 105h0a43 43 0 0 1 40 0l70-60a45 45 0 0 1-3-17 43 43 0 0 1 43-43 43 43 0 0 1 43 43 44 44 0 0 1-12 30h0l79 143h0l5 0a43 43 0 0 1 31 74 45 45 0 0 1-61 0 43 43 0 0 1-1-60l-78-144z m-322-158h504v361a15 15 0 1 0 29 0v-375a14 14 0 0 0-14-15h-519a15 15 0 1 0 0 29z m432 639v124l124-124z m171-6l-2 2a9 9 0 0 1-1 2l-172 172a12 12 0 0 1-5 3 4 4 0 0 1-2 0 10 10 0 0 1-4 0h-490a14 14 0 0 1-14-15v-235a14 14 0 0 1 29 0v222h461v-159a14 14 0 0 1 15-14h159v-693h-635v385a14 14 0 0 1-29 0v-399a14 14 0 0 1 14-15h664a14 14 0 0 1 14 15v719a17 17 0 0 1 0 3 14 14 0 0 1-2 8z" horiz-adv-x="1000" />

<glyph glyph-name="menu-2-1" unicode="&#xe880;" d="M219 384a16 16 0 1 1 22 0 16 16 0 0 1-22 0z m0-62a16 16 0 0 1 11-27 16 16 0 0 1 16 16 16 16 0 0 1-27 11z m0-63a16 16 0 1 1 27-11 16 16 0 0 1-5 11 16 16 0 0 1-22 0z m0-62a16 16 0 1 1 22 0 16 16 0 0 1-22 0z m0-63a16 16 0 1 1 22 0 16 16 0 0 1-22 0z m0-62a16 16 0 0 1 11-27 16 16 0 0 1 16 16 16 16 0 0 1-27 11z m62 0a16 16 0 1 1 22 0 16 16 0 0 1-22 0z m63 0a16 16 0 0 1 0-23 16 16 0 0 1 22 0 16 16 0 0 1-22 23z m62 0a16 16 0 0 1 0-23 16 16 0 0 1 22 0 16 16 0 0 1-22 23z m127 0a16 16 0 1 1 23 0 16 16 0 0 1-23 0z m-64 0a16 16 0 1 1 22 0 16 16 0 0 1-22 0z m176 564a16 16 0 0 1-5-11 16 16 0 0 1 5-12 16 16 0 1 1 0 23z m0 62a16 16 0 0 1 0-22 16 16 0 0 1 22 0 16 16 0 0 1 4 11 16 16 0 0 1-26 11z m62 0a16 16 0 1 1 22 0 16 16 0 0 1-22 0z m63 63a16 16 0 0 1-5-11 16 16 0 0 1 5-12 16 16 0 0 1 26 12 16 16 0 0 1-26 11z m-125 0a16 16 0 0 1 0-23 16 16 0 0 1 26 12 16 16 0 0 1-26 11z m62 0a16 16 0 0 1 0-23 16 16 0 0 1 27 12 16 16 0 0 1-27 11z m-84-301h302a13 13 0 0 1 13 13v302a13 13 0 0 1-13 13h-302a13 13 0 0 1-12-13v-302a13 13 0 0 1 12-13z m163-252h-24a20 20 0 0 1-20-19v-81h-81a20 20 0 0 1-19-20v-24a20 20 0 0 1 19-20h81v-81a20 20 0 0 1 20-19h24a20 20 0 0 1 20 19v81h81a20 20 0 0 1 19 20v24a20 20 0 0 1-19 20h-81v81a20 20 0 0 1-20 19z m-396 567a13 13 0 0 1-13 13h-301a13 13 0 0 1-13-13v-302a13 13 0 0 1 13-13h301a13 13 0 0 1 13 13z m400-346v-158h135a44 44 0 0 0 44-44v-302a44 44 0 0 0-44-44h-302a44 44 0 0 0-44 44v302a44 44 0 0 0 44 44h135v158h-135a44 44 0 0 0-44 44v135h-158v-135a44 44 0 0 0-44-44h-301a44 44 0 0 0-45 44v302a44 44 0 0 0 45 44h301a44 44 0 0 0 44-44v-135h158v135a44 44 0 0 0 44 44h302a44 44 0 0 0 44-44v-302a44 44 0 0 0-44-44z m-694 207a16 16 0 0 1-4-11 16 16 0 0 1 4-12 16 16 0 1 1 0 23z m0 62a16 16 0 0 1 0-22 16 16 0 0 1 22 0 16 16 0 0 1 5 11 16 16 0 0 1-27 11z m63 0a16 16 0 1 1 22 0 16 16 0 0 1-22 0z m62 63a16 16 0 0 1-4-11 16 16 0 0 1 4-12 16 16 0 0 1 27 12 16 16 0 0 1-27 11z m-125 0a16 16 0 0 1 0-23 16 16 0 0 1 27 12 16 16 0 0 1-27 11z m85 0a16 16 0 0 0 0-23 16 16 0 0 0-27 12 16 16 0 0 0 27 11z" horiz-adv-x="1000" />

<glyph glyph-name="menu-2-2" unicode="&#xe881;" d="M739 82a16 16 0 1 0 11-4 16 16 0 0 0-11 4z m0-62a16 16 0 0 0 22 22 16 16 0 0 0 5-11 16 16 0 0 0-27-11z m0-63a16 16 0 0 0-5 11 16 16 0 0 0 5 11 16 16 0 0 0 22 0 16 16 0 0 0 5-11 16 16 0 0 0-27-11z m-103 148a16 16 0 1 0-22 0 16 16 0 0 0 22 0z m0-63a16 16 0 1 0-22 0 16 16 0 0 0 22 0z m0-63a16 16 0 0 0 5-11 16 16 0 1 0-32 0 16 16 0 0 0 5 11 16 16 0 0 0 22 0z m63 63a16 16 0 0 0-23-22 16 16 0 0 0 0 22 16 16 0 0 0 23 0z m0-63a16 16 0 0 0 4-11 16 16 0 1 0-31 0 16 16 0 0 0 4 11 16 16 0 0 0 23 0z m-125 63a16 16 0 0 0-23-22 16 16 0 0 0 0 22 16 16 0 0 0 23 0z m0-63a16 16 0 0 0 4-11 16 16 0 1 0-31 0 16 16 0 0 0 4 11 16 16 0 0 0 23 0z m-63 126a16 16 0 0 0-11-27 16 16 0 0 0-11 4 16 16 0 0 0 22 23z m0-63a16 16 0 1 0-22 0 16 16 0 0 0 22 0z m0-63a16 16 0 0 0 5-11 16 16 0 1 0-32 0 16 16 0 0 0 5 11 16 16 0 0 0 22 0z m-62 63a16 16 0 1 0-23 0 16 16 0 0 0 23 0z m0-63a16 16 0 0 0 4-11 16 16 0 1 0-31 0 16 16 0 0 0 4 11 16 16 0 0 0 23 0z m-63 126a16 16 0 0 0-22-23 16 16 0 0 0 0 23 16 16 0 0 0 22 0z m0-63a16 16 0 0 0 0-22 16 16 0 1 0 0 22z m0-63a16 16 0 0 0 5-11 16 16 0 1 0-32 0 16 16 0 0 0 5 11 16 16 0 0 0 22 0z m-62 63a16 16 0 1 0-23 0 16 16 0 0 0 23 0z m0-63a16 16 0 0 0 4-11 16 16 0 1 0-31 0 16 16 0 0 0 4 11 16 16 0 0 0 23 0z m-63 126a16 16 0 1 0-22 0 16 16 0 0 0 22 0z m0-63a16 16 0 1 0-22 0 16 16 0 0 0 22 0z m0-63a16 16 0 0 0 5-11 16 16 0 1 0-32 0 16 16 0 0 0 5 11 16 16 0 0 0 22 0z m411 332a109 109 0 0 0-219 0 104 104 0 0 0 1 16h77a16 16 0 0 1 16 15v77a104 104 0 0 0 16 1 109 109 0 0 0 109-109z m-156 99v-52h-52a109 109 0 0 0 52 52z m-188-52v187h188v-101a141 141 0 0 1-86-86z m219 93v110a16 16 0 0 1-16 16h-218a16 16 0 0 1-16-16v-219a16 16 0 0 1 16-15h110a129 129 0 0 1-1-16 141 141 0 1 1 141 141 104 104 0 0 1-16-1z m-250 227a15 15 0 0 0 15 15h146a15 15 0 1 0 0-30h-146a15 15 0 0 0-15 15z m508-756h-611v856h408v-183a20 20 0 0 1 20-21h183z m-163 827l134-133h-134z m198-140h0l-2 2s0 0 0 0l-202 202a19 19 0 0 1-9 5l-2 1a16 16 0 0 1-3 0h-449a20 20 0 0 1-20-21v-896a20 20 0 0 1 20-21h653a21 21 0 0 1 20 21v689a16 16 0 0 1 1 4 20 20 0 0 1-7 14z" horiz-adv-x="1000" />

<glyph glyph-name="menu-2-3" unicode="&#xe882;" d="M206 697a16 16 0 1 0-11 5 16 16 0 0 0 11-5z m125 0a16 16 0 1 0-11 5 16 16 0 0 0 11-5z m125 0a16 16 0 1 0-11 5 16 16 0 0 0 11-5z m-313 63a16 16 0 0 0 0-22 16 16 0 0 0-11-5 16 16 0 0 0-16 16 16 16 0 0 0 16 15 16 16 0 0 0 11-4z m63 0a16 16 0 0 0 0-22 16 16 0 0 0-11-5 16 16 0 0 0-16 16 16 16 0 0 0 4 11 16 16 0 0 0 12 4 16 16 0 0 0 11-4z m62 0a16 16 0 0 0 0-22 16 16 0 0 0-11-5 16 16 0 0 0-16 16 16 16 0 0 0 5 11 16 16 0 0 0 22 0z m63 0a16 16 0 0 0 0-22 16 16 0 0 0-11-5 16 16 0 0 0-16 16 16 16 0 0 0 4 11 16 16 0 0 0 23 0z m62 0a16 16 0 0 0 0-22 16 16 0 0 0-11-5 16 16 0 0 0-16 16 16 16 0 0 0 5 11 16 16 0 0 0 22 0z m63 0a16 16 0 0 0 0-22 16 16 0 0 0-11-5 16 16 0 0 0-16 16 16 16 0 0 0 4 11 16 16 0 0 0 23 0z m62 0a16 16 0 0 0 0-22 16 16 0 0 0-11-5 16 16 0 0 0-16 16 16 16 0 0 0 5 11 16 16 0 0 0 11 4 16 16 0 0 0 11-4z m432-812l-52-51a39 39 0 0 0-54 0l-16 15h-87v87l-5 5a39 39 0 0 0-6 47c-7-5-14-10-21-14v-125h-194v86a271 271 0 0 0-32 7v-93h-195v150h83c-7 6-14 12-20 19-4 4-8 8-12 12h-51v80a295 295 0 0 0 0 230v16h8a262 262 0 0 0 18 31h-26v148h195v-26a271 271 0 0 0 32 6v20h194v-58a262 262 0 0 0 32-22v80h197v-147h-136a262 262 0 0 0 18-31h118v-148h-87a299 299 0 0 0-4-31h91v-148h-77l31-31h46v-46l12-12a39 39 0 0 0 0-56z m-887 503h194v147h-194z m0-179h194v148h-194z m0-179h194v148h-194z m194-181h-143a51 51 0 0 0-51 52v98h194z m-194 824a51 51 0 0 0 51 52h772a51 51 0 0 0 52-52v-106h-875z m823 83h-772a82 82 0 0 1-83-83v-772a82 82 0 0 1 83-83h772a82 82 0 0 1 83 83v772a82 82 0 0 1-83 83z m-251-541l13 43 12-43z m31 60a17 17 0 0 1-18 12h-1a17 17 0 0 1-17-12l-36-95a13 13 0 0 1 24-9l9 22h41l9-22a13 13 0 0 1 15-7 13 13 0 0 1 8 16z m-74 0l-50-106a8 8 0 0 0-12-3 9 9 0 0 0-4 11l51 106a9 9 0 0 0 15-8z m-86 0v-99a12 12 0 0 0-11-13h-3a14 14 0 0 0-14 9l-37 66v-63a13 13 0 0 0-13-12 13 13 0 0 0-13 12v99a13 13 0 0 0 12 13h2a16 16 0 0 0 14-9l37-65v62a13 13 0 0 0 13 12 13 13 0 0 0 13-12z m365-391l-85 84 30 30 85-85z m-165 193a210 210 0 1 0 0 297 210 210 0 0 0 0-297z m121-46a16 16 0 0 1-22 0l-16-15-30 30a274 274 0 1 1-22-22l30-30-16-15a16 16 0 0 1 0-22l108-108a16 16 0 0 1 12-4 16 16 0 0 1 10 4l52 52a16 16 0 0 1 0 22z" horiz-adv-x="1000" />

<glyph glyph-name="menu-2-4" unicode="&#xe883;" d="M589 279a269 269 0 0 1 179 69l30-30-14-15a16 16 0 0 1 0-22l107-107a16 16 0 0 1 11-5 16 16 0 0 1 11 5l51 51a16 16 0 0 1 0 22l-107 108a16 16 0 0 1-22 0l-14-15-30 30a269 269 0 1 1-202-91z m257 42l85-84-29-30-85 85z m-418 388a228 228 0 1 0 0-322 227 227 0 0 0 0 322z m510-617a16 16 0 0 1-3 0h-193v149h37l-18 17a45 45 0 0 0-9 14h-26a16 16 0 0 1-15-16v-163h-195v163a16 16 0 0 1-16 16h-411a58 58 0 0 1-58-57v-276a58 58 0 0 1 58-58h822a58 58 0 0 1 58 58v247l-31-31z m-849-180a26 26 0 0 0-26 27v124a18 18 0 0 1 5-1h190v-148a8 8 0 0 1 0-2z m169 327v-146h-190a14 14 0 0 1-5-1v123a26 26 0 0 0 26 26h170a13 13 0 0 1-1-2z m226 2v-148h-195v146a13 13 0 0 1 0 2z m-195-329s0 2 0 2v148h195v-148a8 8 0 0 1 0-2z m227 0s0 2 0 2v148h195v-148c0 0 0-1 0-2z m422 27a26 26 0 0 0-27-27h-169v150h193a16 16 0 0 1 3 0z m-36 199a45 45 0 0 1 20 5v-34h-164v116h37l73-73a47 47 0 0 1 34-14z m-433-30h-164v117h164z m-380 117h154v-117h-165v106a11 11 0 0 0 11 11z m-11-179h165v-118h-154a11 11 0 0 0-11 11z m227 0h164v-118h-164z m226 0h164v-118h-164z m227 0h164v-107a11 11 0 0 0-11-11h-153z m-288 420l193-41a36 36 0 0 1 8-1 40 40 0 0 1 39 31l28 129a39 39 0 0 1-6 30 39 39 0 0 1-24 17l-194 42a39 39 0 0 1-29-5 40 40 0 0 1-16-25l-28-130a39 39 0 0 1 30-47z m28 170a8 8 0 0 0 4 5 8 8 0 0 0 6 1l193-42a7 7 0 0 0 5-3 8 8 0 0 0 1-6l-28-130a8 8 0 0 0-9-6l-194 42a8 8 0 0 0-5 3 8 8 0 0 0-1 6z m-1-113l19 87a7 7 0 0 0 8 5l151-32a7 7 0 0 0 6-9l-19-86a7 7 0 0 0-9-6l-151 33a7 7 0 0 0-5 8z" horiz-adv-x="1000" />

<glyph glyph-name="menu-2-5" unicode="&#xe884;" d="M815 8v-93a34 34 0 0 0-34-34h-93a34 34 0 0 0-35 34v31h-307v-31a34 34 0 0 0-33-34h-94a34 34 0 0 0-34 34v93a34 34 0 0 0 34 34h94a34 34 0 0 0 34-34v-31h122v107a56 56 0 0 1-56 57h-67v-32a34 34 0 0 0-33-33h-94a34 34 0 0 0-34 34v92a34 34 0 0 0 34 34h94a34 34 0 0 0 34-34v-31h66a88 88 0 0 0 87-87v-106h155v31a34 34 0 0 0 33 33h93a34 34 0 0 0 34-34z m-32 490a3 3 0 0 0-2-3h-93a3 3 0 0 0-3 3v93a3 3 0 0 0 3 2h93a3 3 0 0 0 3-2z m-468-195a3 3 0 0 0-3-2h-93a3 3 0 0 0-3 2v94a3 3 0 0 0 3 3h94a3 3 0 0 0 2-3z m0 194a3 3 0 0 0-3-2h-93a3 3 0 0 0-3 2v94a3 3 0 0 0 3 2h94a3 3 0 0 0 2-2z m0 195a3 3 0 0 0-3-3h-93a3 3 0 0 0-3 3v93a3 3 0 0 0 3 3h94a3 3 0 0 0 2-3z m466-67h-93a34 34 0 0 1-35-34v-32h-153v108a88 88 0 0 1-87 87h-67v32a34 34 0 0 1-33 33h-94a34 34 0 0 1-34-34v-93a34 34 0 0 1 34-34h94a34 34 0 0 1 34 34v31h66a56 56 0 0 0 56-56v-107h-123v31a34 34 0 0 1-33 34h-94a34 34 0 0 1-34-34v-93a34 34 0 0 1 34-34h94a34 34 0 0 1 34 34v31h122v-107a56 56 0 0 0-56-56h-67v31a34 34 0 0 1-33 33h-94a34 34 0 0 1-34-33v-94a34 34 0 0 1 34-33h94a34 34 0 0 1 33 33v31h66a88 88 0 0 1 88 88v107h155v-32a34 34 0 0 1 33-33h93a34 34 0 0 1 34 34v93a34 34 0 0 1-34 34z" horiz-adv-x="1000" />

<glyph glyph-name="menu-2-6" unicode="&#xe885;" d="M406 768a16 16 0 1 0-10 4 16 16 0 0 0 11-5z m-44-12a16 16 0 0 0-15-15h-229v-21a16 16 0 0 0-31 0v36a16 16 0 0 0 15 16h245a16 16 0 0 0 15-16z m393-176a16 16 0 1 0 11-4 16 16 0 0 0-11 4z m-188-187a16 16 0 1 0 11-5 16 16 0 0 0-11 5z m63 62a16 16 0 1 0 11-4 16 16 0 0 0-11 4z m-63 0a16 16 0 0 0 0 22 16 16 0 0 0 11 5 16 16 0 1 0-11-27z m125 63a16 16 0 0 0-4 11 16 16 0 1 0 4-11z m-62 0a16 16 0 1 0 11-5 16 16 0 0 0-11 5z m-63 0a16 16 0 0 0-4 11 16 16 0 1 0 15-16 16 16 0 0 0-11 5z m125 62a16 16 0 1 0 11-4 16 16 0 0 0-11 4z m-62 0a16 16 0 1 0 11-4 16 16 0 0 0-11 4z m-63 0a16 16 0 1 0 11-4 16 16 0 0 0-11 4z m-62 0a16 16 0 1 0 11-4 16 16 0 0 0-11 4z m433 81a8 8 0 0 0-9-8h-858a8 8 0 0 0-8 8v118a9 9 0 0 0 8 9h858a9 9 0 0 0 9-9z m-365-352a31 31 0 0 1-8-21v-306c0-1-1-3-4-5l-98-61a23 23 0 0 0-12-4c-9 0-16 6-16 8v368a31 31 0 0 1-7 21l-272 312h689z m356 510h-858a40 40 0 0 1-40-40v-118a40 40 0 0 1 40-40h43l289-333v-368a44 44 0 0 1 47-39 54 54 0 0 1 29 8l98 63a37 37 0 0 1 19 31v305l290 333h43a40 40 0 0 1 40 40v118a40 40 0 0 1-40 40z" horiz-adv-x="1000" />

<glyph glyph-name="menu-2-7" unicode="&#xe886;" d="M830 465a45 45 0 0 0-2-6 39 39 0 0 0 8-23v-3l52 9a44 44 0 1 1-5 31z m-73-28a37 37 0 0 0 4 15l-147-24a44 44 0 0 1-80-24 45 45 0 0 1 4-19l-96-108-44-37a45 45 0 0 0 15-31l50 43 1 2 97 108a45 45 0 0 1 17-3 44 44 0 0 1 43 38l136 23z m-580-451a44 44 0 0 1 44 44 44 44 0 0 1-2 15l25 21a45 45 0 0 0-20 24l-26-21a42 42 0 0 1-21 5 44 44 0 0 1 0-87z m557 270v137l-93-16a68 68 0 0 0-63-41 88 88 0 0 0-9 0l-87-98a27 27 0 0 0-3-3l-1-1h234a22 22 0 0 1 22 22z m-221 135a54 54 0 0 0-2 13 67 67 0 0 0 113 49l110 19v79a22 22 0 0 1-21 21h-296a22 22 0 0 1-21-21v-283l29 25z m128-204a16 16 0 0 1 0-31h15a16 16 0 0 1 0 31z m-32 432h16a16 16 0 0 1 0 32h-16a16 16 0 0 1 0-32z m-31-432a16 16 0 0 1 0-31h16a16 16 0 0 1 0 31z m-31 432h16a16 16 0 0 1 0 32h-16a16 16 0 0 1 0-32z m125 0h16a16 16 0 0 1 0 32h-16a16 16 0 0 1 0-32z m31-463h16a16 16 0 0 1 0 31h-16a16 16 0 0 1 0-31z m78 140a16 16 0 0 1 32 0v16a16 16 0 0 1-32 0z m-265-109a16 16 0 0 1 0-31h15a16 16 0 0 1 0 31z m265 172a16 16 0 0 1 32 0v16a16 16 0 0 1-32 0z m0 125a16 16 0 1 1 32 0v16a16 16 0 0 1-32 0z m16 47a16 16 0 0 1 16 15v16a16 16 0 0 1-32 0v-16a16 16 0 0 1 16-15z m-16-110a16 16 0 1 1 32 0v16a16 16 0 0 1-32 0z m-297 198h16a16 16 0 0 1 0 32h-16a16 16 0 0 1 0-32z m-136-223a16 16 0 0 1-31 0v-16a16 16 0 0 1 31 0z m-15-110a16 16 0 0 1-16-15v-16a16 16 0 0 1 31 0v16a16 16 0 0 1-15 15z m15 172a16 16 0 0 1-31 0v-15a16 16 0 0 1 31 0z m0-125a16 16 0 0 1-31 0v-15a16 16 0 0 1 31 0z m0 188a16 16 0 0 1-31 0v-16a16 16 0 0 1 31 0z m-72-407h82v83h-82z m-31-10v102a21 21 0 0 0 21 21h102a21 21 0 0 0 21-21v-20h17a16 16 0 0 0 0-31h-17v-51a21 21 0 0 0-21-20h-102a21 21 0 0 0-21 22z m177 515h16a16 16 0 0 1 0 32h-16a16 16 0 0 1 0-32z m31-432a16 16 0 1 1 0-31h16a16 16 0 0 1 0 31z m318-71h82v81h-82z m-31-10v101a21 21 0 0 0 21 21h20a17 17 0 0 0-1 6v16a16 16 0 0 0 31 0v-16a14 14 0 0 0-1-6h52a21 21 0 0 0 21-21v-101a21 21 0 0 0-20-22h-102a21 21 0 0 0-21 22z m31 505h82v80h-82z m-52 24a16 16 0 0 0 15 16h7v50a21 21 0 0 0 21 22h101a21 21 0 0 0 21-22v-101a21 21 0 0 0-21-21h-102a21 21 0 0 0-21 21v19h-6a16 16 0 0 0-15 16z m-442-25h81v81h-82z m-31-10v101a21 21 0 0 0 21 22h101a21 21 0 0 0 21-22v-101a21 21 0 0 0-21-21h-20v-11a16 16 0 0 0-31 0v11h-51a21 21 0 0 0-21 21z m723-703a16 16 0 0 0-16-16h-906a16 16 0 0 0-16 16v906a16 16 0 0 0 32 0v-76h22a16 16 0 1 0 0-32h-22v-70h22a16 16 0 1 0 0-32h-22v-69h22a16 16 0 1 0 0-33h-22v-69h22a16 16 0 1 0 0-32h-22v-69h22a16 16 0 1 0 0-33h-22v-69h22a16 16 0 1 0 0-32h-22v-70h22a16 16 0 1 0 0-32h-22v-69h22a16 16 0 1 0 0-33h-22v-71h74v18a16 16 0 0 0 32 0v-18h74v18a16 16 0 0 0 32 0v-18h73v18a16 16 0 0 0 33 0v-18h72v18a16 16 0 0 0 33 0v-18h73v18a16 16 0 0 0 32 0v-18h73v18a16 16 0 0 0 33 0v-18h73v18a16 16 0 0 0 33 0v-18h73v18a16 16 0 0 0 32 0v-18h45a16 16 0 0 0 16-15z" horiz-adv-x="1000" />

<glyph glyph-name="menu-2-8" unicode="&#xe887;" d="M844 64a8 8 0 0 1-5 1h-30a13 13 0 0 0-9 4 12 12 0 0 0-4 9v111a13 13 0 0 1-4 10 13 13 0 0 1-10 4h-47a13 13 0 0 1-10-4 14 14 0 0 1-4-10v-111a12 12 0 0 0-2-9 13 13 0 0 0-10-4h-29a8 8 0 0 1-5-2 10 10 0 0 1-4-9 10 10 0 0 1 2-5l76-92a13 13 0 0 1 20 0l77 92a10 10 0 0 1 2 5 10 10 0 0 1-4 9z m-710 155h40v40h-40z m-31-31h102v102h-102z m377 0h40v39h-40z m-31-31h102v101h-102z m439-243h50v49h-50z m-32-32h113v112h-113z m-279 30h50v50h-50z m-31-31h112v113h-112z m-123 31h50v50h-50z m-31-31h112v113h-112z m-111 438h40v40h-40z m-31-31h102v102h-102z m11 406h40v40h-40z m-31-31h102v102h-102z m73-463a29 29 0 1 1 29 29 29 29 0 0 1-29-29z m-31 0a60 60 0 1 0 60-60 60 60 0 0 0-60 60z m-90 203a29 29 0 1 1-28-28 29 29 0 0 1 28 28z m32 0a60 60 0 1 0-60 60 60 60 0 0 0 60-60z m64-463a29 29 0 1 1-28-28 29 29 0 0 1 29 29z m32 0a60 60 0 1 0-60 61 60 60 0 0 0 60-60z m-190 0a29 29 0 1 1-29-28 29 29 0 0 1 29 29z m31 0a60 60 0 1 0-60 61 60 60 0 0 0 60-61z m71 557a29 29 0 1 1-28 29 29 29 0 0 1 28-29z m0-31a60 60 0 1 0 60 60 60 60 0 0 0-60-60z m-97 205a29 29 0 1 1 29 29 29 29 0 0 1-29-29z m-31 0a60 60 0 1 0 60-60 60 60 0 0 0-60 60z m326 45a239 239 0 1 1 169 70 239 239 0 0 1-169-70z m397-425l85-85 29 29-85 85z m-419 447a270 270 0 0 0 393-370l30-29 14 14a16 16 0 0 0 22 0l107-107a16 16 0 0 0 0-22l-51-51a16 16 0 0 0-11-5 16 16 0 0 0-11 5l-107 107a16 16 0 0 0 0 22l14 14-30 30a270 270 0 0 0-370 392z m59-105a60 60 0 1 1 60 61 60 60 0 0 1-60-60z m89-107a60 60 0 1 1 60-60 60 60 0 0 1-60 60z m110-22h103v102h-103z m-279 43a216 216 0 1 0 62-152 214 214 0 0 0-62 152z m140-81a29 29 0 1 1 29 29 29 29 0 0 1-29-29z m0 139a29 29 0 1 1-28 28 29 29 0 0 1 28-28z m171-70h39v40h-39z m-657-408v640a50 50 0 0 0 49 52h347a28 28 0 0 0 22-11l3-3a262 262 0 0 1-28-17h-343a19 19 0 0 1-18-21v-641a19 19 0 0 1 17-20h523a19 19 0 0 1 17 20v130a260 260 0 0 1 31 4v-133a50 50 0 0 0-48-52h-523a51 51 0 0 0-49 52z" horiz-adv-x="1000" />

<glyph glyph-name="menu-2-9" unicode="&#xe888;" d="M906 729a30 30 0 1 0-30 30 30 30 0 0 0 30-30z m32-160h-239v167a51 51 0 0 0 51 52h136a51 51 0 0 0 52-52z m-104-163h104v132h-104z m0-164h104v132h-104z m0-164h104v133h-104z m104-114a51 51 0 0 0-52-52h-52v135h104z m-239 114h104v133h-104z m104-166h-53a51 51 0 0 0-51 52v83h104z m83 907h-136a82 82 0 0 1-82-83v-232a212 212 0 0 0 31-43v77h104v-133h-82a190 190 0 0 0 6-31h76v-133h-102a227 227 0 0 0-33-45v-232a82 82 0 0 1 82-83h136a82 82 0 0 1 83 83v772a82 82 0 0 1-83 83z m-617-90a30 30 0 1 0-29 30 30 30 0 0 0 29-30z m-71-651h103v133h-103z m103-114a51 51 0 0 0-51-52h-52v135h103z m-238 442h103v132h-103z m0-164h103v132h-103z m0-164h103v133h-103z m103-166h-52a51 51 0 0 0-51 52v83h103z m-103 824a51 51 0 0 0 51 52h136a51 51 0 0 0 51-52v-167h-238z m135-494v132h75a190 190 0 0 0 6 32h-81v132h103v-77a212 212 0 0 0 31 43v232a82 82 0 0 1-82 83h-136a82 82 0 0 1-83-83v-772a82 82 0 0 1 83-83h136a82 82 0 0 1 82 83v232a227 227 0 0 0-32 46z m434 96a20 20 0 0 0-19-19h-82v-81a20 20 0 0 0-19-20h-24a19 19 0 0 0-19 20v81h-81a20 20 0 0 0-20 19v24a20 20 0 0 0 20 19h81v82a19 19 0 0 0 19 19h25a20 20 0 0 0 18-19v-82h81a20 20 0 0 0 20-19z m-132 200a188 188 0 1 1 188-188 188 188 0 0 1-188 188z" horiz-adv-x="1000" />

<glyph glyph-name="menu-2-10" unicode="&#xe889;" d="M456-26v107h-141v-144h104a37 37 0 0 1 37 37z m-141 188h141v144h-141z m-1 219h141v145h-141z m45 347a16 16 0 0 1-11-4 16 16 0 1 1 11 4z m594-503h-94a16 16 0 0 1 0-31h62a173 173 0 0 0-114-43 176 176 0 0 0-129 58 16 16 0 0 1-23 0 16 16 0 0 1 0-22 207 207 0 0 1 153-67 205 205 0 0 1 130 48v-52a16 16 0 1 1 31 0v93a16 16 0 0 1-16 16z m-656 503a16 16 0 0 1-16-15 16 16 0 0 1 5-11 16 16 0 0 1 11-5 16 16 0 0 1 11 5 16 16 0 0 1-11 26z m184 8a51 51 0 0 1-51 52h-316a51 51 0 0 1-51-52v-152h418z m-193-375h193v192h-193z m0-224h193v192h-193z m193-31h-193v-194h142a51 51 0 0 1 51 52z m-418 255h194v192h-194z m0-224h194v192h-194z m194-31h-194v-142a51 51 0 0 1 51-52h143z m256 630v-772a82 82 0 0 0-83-83h-316a82 82 0 0 0-83 83v772a82 82 0 0 0 83 83h316a82 82 0 0 0 83-83z m-91-8a16 16 0 0 1-11-4 16 16 0 1 1 11 4z m229-269v94a16 16 0 0 0 31 0v-52a204 204 0 0 0 131 48 207 207 0 0 0 152-68 16 16 0 0 0 4-10 16 16 0 0 0-5-12 16 16 0 0 0-22 0 173 173 0 0 1-243 16h61a16 16 0 0 0 0-31h-94a16 16 0 0 0-15 15z" horiz-adv-x="1000" />

<glyph glyph-name="menu-2-11" unicode="&#xe88a;" d="M324-9v53h85l-9-27a75 75 0 0 1-3-26z m0 105h88v54h-89z m152 136v24h22l-11-11a106 106 0 0 1-11-13z m-152-30h88v54h-89z m575 145a16 16 0 0 0 4-11 17 17 0 0 0-4-11 16 16 0 0 0-11-5 16 16 0 0 0-11 5 17 17 0 0 0-5 11 16 16 0 0 0 27 11z m-394 405l166-193h-143a23 23 0 0 0-23 23z m189-765v-51a23 23 0 0 0-23-24h-585a23 23 0 0 0-23 24v828a23 23 0 0 0 23 24h388v-206a55 55 0 0 1 54-55h166v-75l31 31v48a31 31 0 0 1-7 21l-219 256a31 31 0 0 1-24 11h-389a55 55 0 0 1-55-55v-828a55 55 0 0 1 55-55h585a55 55 0 0 1 54 55v74l-1-2a119 119 0 0 0-30-22z m161 404a16 16 0 0 0 4-11 16 16 0 0 0-4-11 16 16 0 0 0-23 0 16 16 0 0 0 12 27 17 17 0 0 0 11-5z m-45-132a16 16 0 0 0 5-11 16 16 0 0 0-5-11 17 17 0 0 0-11-5 17 17 0 0 0-11 5 16 16 0 0 0-4 11 16 16 0 0 0 15 15 17 17 0 0 0 11-5z m0 88a16 16 0 1 0-11 5 16 16 0 0 0 11-5z m121-21l-256-257-127 127 257 256a21 21 0 0 0 16 7 22 22 0 0 0 15-7l96-96a21 21 0 0 0 0-30z m-373-303l-56 56 29 91 118-118z m-82-26l16 49 33-33z m477 382l-96 96a53 53 0 0 1-74 0l-263-263a77 77 0 0 1-19-32l-56-177a29 29 0 0 1 36-37l179 56a75 75 0 0 1 31 19l262 263a53 53 0 0 1 0 75z m-98-76a16 16 0 0 0 4-11 16 16 0 1 0-16 16 17 17 0 0 0 12-5z m-696-110h118v75h-118z m0-107h118v75h-118z m118-108h-101a17 17 0 0 0-17 17v59h118z m31 215h118v75h-118z m300 173v72a48 48 0 0 1-49 48h-383a48 48 0 0 1-48-48v-443a48 48 0 0 1 48-48h237l-2 2a76 76 0 0 0-13 29h-90v76h104l10 32h-114v75h118v-62l31 96a8 8 0 0 0 0 2v71h54l31 32h-383v138a17 17 0 0 0 17 17h383a17 17 0 0 0 17-17v-104z m-264 47a16 16 0 0 1-11-5 16 16 0 1 1 11 5m-125 0a16 16 0 0 1-16-16 16 16 0 0 1 5-11 16 16 0 0 1 11-5 16 16 0 0 1 11 5 16 16 0 0 1-11 27m62 0a16 16 0 0 1-11-5 16 16 0 1 1 11 5" horiz-adv-x="1000" />

<glyph glyph-name="menu-2" unicode="&#xe88b;" d="M721 5a125 125 0 1 0 125 125 125 125 0 0 0-125-125z m163 164a172 172 0 0 1-21 49 22 22 0 0 0 4 28l19 19-31 30-19-19a22 22 0 0 0-15-6 23 23 0 0 0-12 3 172 172 0 0 1-50 21 22 22 0 0 0-17 22v26h-43v-26a22 22 0 0 0-17-22 168 168 0 0 1-49-21 23 23 0 0 0-12-3 22 22 0 0 0-16 6l-19 19-31-30 19-19a22 22 0 0 0 3-28 167 167 0 0 1-21-49 23 23 0 0 0-21-17h-27v-43h27a22 22 0 0 0 22-17 166 166 0 0 1 21-50 22 22 0 0 0-3-27l-19-19 31-32 19 19a23 23 0 0 0 16 7 22 22 0 0 0 11-3 166 166 0 0 1 50-21 22 22 0 0 0 17-22v-27h43v28a23 23 0 0 0 17 22 167 167 0 0 1 50 20 21 21 0 0 0 10 4 22 22 0 0 0 16-7l19-19 30 31-19 19a22 22 0 0 0-3 28 172 172 0 0 1 21 49 22 22 0 0 0 22 17h26v43h-26a22 22 0 0 0-22 17z m-406 184a14 14 0 0 0-14 2 123 123 0 0 1-27 16 14 14 0 0 0-9 11l-6 43-63 0-6-44a14 14 0 0 0-9-11 125 125 0 0 1-27-15 13 13 0 0 0-8-3 12 12 0 0 0-6 1l-39 16-32-54 34-27a16 16 0 0 0 5-13 101 101 0 0 1 0-32 15 15 0 0 0-6-12l-34-27 31-54 41 16a14 14 0 0 0 5 0 14 14 0 0 0 9-3 123 123 0 0 1 27-16 14 14 0 0 0 9-11l6-42 63 0 7 44a14 14 0 0 0 9 11 76 76 0 0 1 10 5v-67a34 34 0 0 1 0-6 23 23 0 0 0-21-15h-72a23 23 0 0 0-23 20l-6 39a156 156 0 0 0-19 12l-38-16a26 26 0 0 0-8-1 23 23 0 0 0-20 11l-36 63a23 23 0 0 0 5 29l32 25q0 6 0 12c0 3 0 7 0 11l-32 25a23 23 0 0 0-5 30l36 62a23 23 0 0 0 20 12 21 21 0 0 0 8-2l38-16a132 132 0 0 0 19 12l6 40a23 23 0 0 0 23 19h72a23 23 0 0 0 23-20l5-39a144 144 0 0 0 20-11l37 15a23 23 0 0 0 29-10l19-32-1 0-20-22-20 35z m-87-150a56 56 0 1 0 56 56 56 56 0 0 0-56-56z m0 141a85 85 0 1 1 84-85 85 85 0 0 1-84 85z m330-302a88 88 0 1 0 87 88 88 88 0 0 0-87-88z m0 205a117 117 0 1 1 117-117 117 117 0 0 1-117 117z m219-146h-34a15 15 0 0 1-14-11 171 171 0 0 0-22-52 15 15 0 0 1 2-18l25-25-42-41-24 24a15 15 0 0 1-18 3 176 176 0 0 0-52-22 15 15 0 0 1-11-14v-35h-59v35a15 15 0 0 1-11 14 179 179 0 0 0-52 22 14 14 0 0 1-18-2l-24-25-42 42 25 24a14 14 0 0 1 2 18 179 179 0 0 0-21 51 15 15 0 0 1-15 11h-35v60h35a15 15 0 0 1 14 11 176 176 0 0 0 21 51 15 15 0 0 1-1 19l-25 24 42 42 24-25a14 14 0 0 1 18-2 175 175 0 0 0 52 21 15 15 0 0 1 11 15v34h59v-34a15 15 0 0 1 11-15 172 172 0 0 0 52-21 15 15 0 0 1 18 2l24 24 42-41-25-24a16 16 0 0 1-2-18 168 168 0 0 0 21-52 15 15 0 0 1 14-11h35z m15 88h-38a195 195 0 0 1-16 39l27 26a16 16 0 0 1 0 21l-62 63a16 16 0 0 1-21 0l-27-27a206 206 0 0 1-39 15v39a15 15 0 0 1-14 14h-89a15 15 0 0 1-14-14v-38a211 211 0 0 1-39-16l-27 27a16 16 0 0 1-20 0l-63-63a15 15 0 0 1 0-21l27-27a205 205 0 0 1-16-38h-38a15 15 0 0 1-15-15v-88a15 15 0 0 1 15-15h38a206 206 0 0 1 16-38l-27-27a14 14 0 0 1 0-20l63-63a14 14 0 0 1 20 0l27 27a211 211 0 0 1 39-16v-38a15 15 0 0 1 15-14h88a15 15 0 0 1 14 14v38a205 205 0 0 1 39 15l27-26a15 15 0 0 1 21 0l62 62a15 15 0 0 1 0 21l-27 27a196 196 0 0 1 15 39h38a15 15 0 0 1 15 14v88a16 16 0 0 1-15 15z m-851 408a16 16 0 0 0 4 10 16 16 0 0 0 21 0 16 16 0 0 0 4-10 15 15 0 0 0-25-11 16 16 0 0 0-4 11z m73 14h276a15 15 0 1 0 0-29h-276a15 15 0 0 0 0 29z m-73-81a15 15 0 0 0 14 14h342a15 15 0 0 0 0-29h-342a15 15 0 0 0-14 15z m0 134a15 15 0 0 0 14 14h264a15 15 0 0 0 0-29h-264a15 15 0 0 0-14 14z m0 67a15 15 0 0 0 14 15h148a15 15 0 1 0 0-30h-148a15 15 0 0 0-14 15z m454-88v125l125-126z m-13-732h-485v878h469v-161a15 15 0 0 1 15-14h161v-186a15 15 0 0 1 29 0v197c0 1 0 2 0 3a14 14 0 0 1-1 6 10 10 0 0 1-3 5 8 8 0 0 1-2 1l-174 174h0l-2 1a14 14 0 0 1-9 4h-498a16 16 0 0 1-14-15v-908a16 16 0 0 1 15-15h500a15 15 0 0 1 0 30z" horiz-adv-x="1000" />

</font>
</defs>
</svg>
